<svg xmlns="http://www.w3.org/2000/svg" xmlns:xlink="http://www.w3.org/1999/xlink" width="500" zoomAndPan="magnify" viewBox="0 0 375 374.999991" height="500" preserveAspectRatio="xMidYMid meet" version="1.0"><path fill="#e89105" d="M 179.566406 137.207031 L 176.550781 137.207031 L 176.550781 127.324219 L 162.824219 113.59375 L 130.5 113.59375 L 120.851562 123.246094 L 118.71875 121.109375 L 129.25 110.578125 L 164.070312 110.578125 L 179.566406 126.074219 Z M 179.566406 137.207031 " fill-opacity="1" fill-rule="nonzero"/><path fill="#e89105" d="M 108.066406 171.722656 L 105.046875 171.722656 L 105.046875 152.628906 L 105.488281 152.1875 L 134.78125 122.898438 L 161.976562 122.898438 L 168.429688 129.351562 L 168.429688 140.734375 L 165.414062 140.734375 L 165.414062 130.601562 L 160.726562 125.914062 L 136.03125 125.914062 L 108.066406 153.878906 Z M 108.066406 171.722656 " fill-opacity="1" fill-rule="nonzero"/><path fill="#e89105" d="M 164.570312 144.613281 L 154.503906 135.351562 L 146.351562 135.351562 L 140.609375 141.09375 L 138.476562 138.960938 L 145.101562 132.335938 L 155.679688 132.335938 L 166.613281 142.390625 Z M 164.570312 144.613281 " fill-opacity="1" fill-rule="nonzero"/><path fill="#e89105" d="M 125.308594 187.121094 L 122.292969 187.121094 L 122.292969 175.175781 L 135.921875 161.546875 L 139.371094 161.546875 L 139.371094 164.566406 L 137.167969 164.566406 L 125.308594 176.425781 Z M 125.308594 187.121094 " fill-opacity="1" fill-rule="nonzero"/><path fill="#e89105" d="M 121.125 158.859375 L 118.109375 158.859375 L 118.109375 149.667969 L 125.785156 141.996094 L 131.21875 141.996094 L 131.21875 145.011719 L 127.035156 145.011719 L 121.125 150.917969 Z M 121.125 158.859375 " fill-opacity="1" fill-rule="nonzero"/><path fill="#e89105" d="M 105.722656 216.019531 L 102.703125 216.019531 L 102.703125 194.765625 L 122.734375 174.734375 L 124.867188 176.867188 L 105.722656 196.015625 Z M 105.722656 216.019531 " fill-opacity="1" fill-rule="nonzero"/><path fill="#e89105" d="M 134.507812 230.167969 L 128.839844 224.5 L 128.839844 201.40625 L 154.765625 175.476562 L 156.902344 177.609375 L 131.855469 202.65625 L 131.855469 223.246094 L 136.644531 228.035156 Z M 134.507812 230.167969 " fill-opacity="1" fill-rule="nonzero"/><path fill="#e89105" d="M 121.996094 258.714844 L 112.242188 248.960938 L 112.242188 218.003906 L 129.277344 200.960938 L 131.414062 203.097656 L 115.257812 219.253906 L 115.257812 247.710938 L 124.128906 256.582031 Z M 121.996094 258.714844 " fill-opacity="1" fill-rule="nonzero"/><path fill="#e89105" d="M 157.605469 259.09375 L 152.253906 253.746094 L 152.253906 233.832031 L 170.359375 215.730469 L 172.492188 217.863281 L 155.273438 235.082031 L 155.273438 252.496094 L 159.738281 256.957031 Z M 157.605469 259.09375 " fill-opacity="1" fill-rule="nonzero"/><path fill="#e89105" d="M 143.558594 273.613281 L 140.542969 273.613281 L 140.542969 256.9375 L 152.699219 244.78125 L 154.832031 246.914062 L 143.558594 258.1875 Z M 143.558594 273.613281 " fill-opacity="1" fill-rule="nonzero"/><path fill="#e89105" d="M 175.277344 281.878906 L 174.648438 281.878906 L 171.710938 278.9375 L 171.710938 254.53125 L 152.699219 235.523438 L 154.832031 233.390625 L 174.726562 253.285156 L 174.726562 277.6875 L 176.34375 279.304688 L 175.277344 280.371094 Z M 175.277344 281.878906 " fill-opacity="1" fill-rule="nonzero"/><path fill="#e89105" d="M 178.601562 289.910156 C 175.175781 289.910156 172.386719 287.121094 172.386719 283.695312 C 172.386719 280.269531 175.175781 277.480469 178.601562 277.480469 C 182.027344 277.480469 184.816406 280.269531 184.816406 283.695312 C 184.816406 287.121094 182.027344 289.910156 178.601562 289.910156 Z M 178.601562 280.5 C 176.839844 280.5 175.40625 281.933594 175.40625 283.695312 C 175.40625 285.457031 176.839844 286.890625 178.601562 286.890625 C 180.363281 286.890625 181.796875 285.457031 181.796875 283.695312 C 181.796875 281.933594 180.363281 280.5 178.601562 280.5 Z M 178.601562 280.5 " fill-opacity="1" fill-rule="nonzero"/><path fill="#e89105" d="M 161.460938 267.371094 C 158.035156 267.371094 155.246094 264.585938 155.246094 261.15625 C 155.246094 257.730469 158.035156 254.945312 161.460938 254.945312 C 164.886719 254.945312 167.675781 257.730469 167.675781 261.15625 C 167.675781 264.585938 164.886719 267.371094 161.460938 267.371094 Z M 161.460938 257.960938 C 159.699219 257.960938 158.265625 259.394531 158.265625 261.15625 C 158.265625 262.917969 159.699219 264.351562 161.460938 264.351562 C 163.222656 264.351562 164.65625 262.917969 164.65625 261.15625 C 164.65625 259.394531 163.222656 257.960938 161.460938 257.960938 Z M 161.460938 257.960938 " fill-opacity="1" fill-rule="nonzero"/><path fill="#e89105" d="M 126.230469 266.875 C 122.804688 266.875 120.015625 264.089844 120.015625 260.660156 C 120.015625 257.234375 122.804688 254.445312 126.230469 254.445312 C 129.65625 254.445312 132.445312 257.234375 132.445312 260.660156 C 132.445312 264.089844 129.65625 266.875 126.230469 266.875 Z M 126.230469 257.464844 C 124.46875 257.464844 123.035156 258.898438 123.035156 260.660156 C 123.035156 262.421875 124.46875 263.855469 126.230469 263.855469 C 127.992188 263.855469 129.425781 262.421875 129.425781 260.660156 C 129.425781 258.898438 127.992188 257.464844 126.230469 257.464844 Z M 126.230469 257.464844 " fill-opacity="1" fill-rule="nonzero"/><path fill="#e89105" d="M 137.769531 237.703125 C 134.34375 237.703125 131.554688 234.917969 131.554688 231.488281 C 131.554688 228.0625 134.34375 225.277344 137.769531 225.277344 C 141.199219 225.277344 143.984375 228.0625 143.984375 231.488281 C 143.984375 234.917969 141.195312 237.703125 137.769531 237.703125 Z M 137.769531 228.292969 C 136.007812 228.292969 134.574219 229.726562 134.574219 231.488281 C 134.574219 233.25 136.007812 234.683594 137.769531 234.683594 C 139.53125 234.683594 140.964844 233.25 140.964844 231.488281 C 140.964844 229.726562 139.53125 228.292969 137.769531 228.292969 Z M 137.769531 228.292969 " fill-opacity="1" fill-rule="nonzero"/><path fill="#e89105" d="M 124.558594 244.691406 C 121.132812 244.691406 118.34375 241.902344 118.34375 238.476562 C 118.34375 235.050781 121.132812 232.261719 124.558594 232.261719 C 127.984375 232.261719 130.773438 235.050781 130.773438 238.476562 C 130.773438 241.902344 127.984375 244.691406 124.558594 244.691406 Z M 124.558594 235.28125 C 122.796875 235.28125 121.363281 236.714844 121.363281 238.476562 C 121.363281 240.238281 122.796875 241.671875 124.558594 241.671875 C 126.320312 241.671875 127.753906 240.238281 127.753906 238.476562 C 127.753906 236.714844 126.324219 235.28125 124.558594 235.28125 Z M 124.558594 235.28125 " fill-opacity="1" fill-rule="nonzero"/><path fill="#e89105" d="M 124.097656 198.039062 C 120.671875 198.039062 117.882812 195.253906 117.882812 191.824219 C 117.882812 188.398438 120.671875 185.613281 124.097656 185.613281 C 127.527344 185.613281 130.3125 188.398438 130.3125 191.824219 C 130.3125 195.253906 127.527344 198.039062 124.097656 198.039062 Z M 124.097656 188.628906 C 122.335938 188.628906 120.902344 190.0625 120.902344 191.824219 C 120.902344 193.585938 122.335938 195.019531 124.097656 195.019531 C 125.859375 195.019531 127.292969 193.585938 127.292969 191.824219 C 127.292969 190.0625 125.859375 188.628906 124.097656 188.628906 Z M 124.097656 188.628906 " fill-opacity="1" fill-rule="nonzero"/><path fill="#e89105" d="M 106.554688 182.457031 C 103.128906 182.457031 100.34375 179.667969 100.34375 176.242188 C 100.34375 172.8125 103.128906 170.027344 106.554688 170.027344 C 109.984375 170.027344 112.769531 172.8125 112.769531 176.242188 C 112.769531 179.667969 109.984375 182.457031 106.554688 182.457031 Z M 106.554688 173.046875 C 104.792969 173.046875 103.359375 174.480469 103.359375 176.242188 C 103.359375 178.003906 104.792969 179.4375 106.554688 179.4375 C 108.316406 179.4375 109.75 178.003906 109.75 176.242188 C 109.753906 174.480469 108.320312 173.046875 106.554688 173.046875 Z M 106.554688 173.046875 " fill-opacity="1" fill-rule="nonzero"/><path fill="#e89105" d="M 119.816406 169.78125 C 116.386719 169.78125 113.601562 166.996094 113.601562 163.566406 C 113.601562 160.140625 116.386719 157.351562 119.816406 157.351562 C 123.242188 157.351562 126.027344 160.140625 126.027344 163.566406 C 126.027344 166.996094 123.238281 169.78125 119.816406 169.78125 Z M 119.816406 160.371094 C 118.054688 160.371094 116.621094 161.804688 116.621094 163.566406 C 116.621094 165.328125 118.054688 166.761719 119.816406 166.761719 C 121.578125 166.761719 123.011719 165.328125 123.011719 163.566406 C 123.011719 161.804688 121.578125 160.371094 119.816406 160.371094 Z M 119.816406 160.371094 " fill-opacity="1" fill-rule="nonzero"/><path fill="#e89105" d="M 135.902344 149.226562 C 132.472656 149.226562 129.6875 146.4375 129.6875 143.011719 C 129.6875 139.585938 132.472656 136.796875 135.902344 136.796875 C 139.328125 136.796875 142.117188 139.585938 142.117188 143.011719 C 142.117188 146.4375 139.328125 149.226562 135.902344 149.226562 Z M 135.902344 139.816406 C 134.140625 139.816406 132.707031 141.25 132.707031 143.011719 C 132.707031 144.773438 134.140625 146.207031 135.902344 146.207031 C 137.664062 146.207031 139.097656 144.773438 139.097656 143.011719 C 139.097656 141.25 137.664062 139.816406 135.902344 139.816406 Z M 135.902344 139.816406 " fill-opacity="1" fill-rule="nonzero"/><path fill="#e89105" d="M 117.480469 131.621094 C 114.050781 131.621094 111.265625 128.832031 111.265625 125.40625 C 111.265625 121.980469 114.050781 119.191406 117.480469 119.191406 C 120.90625 119.191406 123.695312 121.980469 123.695312 125.40625 C 123.691406 128.832031 120.902344 131.621094 117.480469 131.621094 Z M 117.480469 122.210938 C 115.71875 122.210938 114.285156 123.644531 114.285156 125.40625 C 114.285156 127.167969 115.71875 128.601562 117.480469 128.601562 C 119.242188 128.601562 120.675781 127.167969 120.675781 125.40625 C 120.675781 123.644531 119.242188 122.210938 117.480469 122.210938 Z M 117.480469 122.210938 " fill-opacity="1" fill-rule="nonzero"/><path fill="#e89105" d="M 104.214844 226.398438 C 100.785156 226.398438 98 223.609375 98 220.183594 C 98 216.757812 100.785156 213.96875 104.214844 213.96875 C 107.640625 213.96875 110.425781 216.757812 110.425781 220.183594 C 110.425781 223.609375 107.640625 226.398438 104.214844 226.398438 Z M 104.214844 216.988281 C 102.453125 216.988281 101.019531 218.421875 101.019531 220.183594 C 101.019531 221.945312 102.453125 223.378906 104.214844 223.378906 C 105.976562 223.378906 107.410156 221.945312 107.410156 220.183594 C 107.410156 218.421875 105.976562 216.988281 104.214844 216.988281 Z M 104.214844 216.988281 " fill-opacity="1" fill-rule="nonzero"/><path fill="#e89105" d="M 142.359375 283.257812 C 138.933594 283.257812 136.148438 280.46875 136.148438 277.042969 C 136.148438 273.617188 138.933594 270.828125 142.359375 270.828125 C 145.789062 270.828125 148.574219 273.617188 148.574219 277.042969 C 148.574219 280.46875 145.789062 283.257812 142.359375 283.257812 Z M 142.359375 273.847656 C 140.597656 273.847656 139.164062 275.28125 139.164062 277.042969 C 139.164062 278.804688 140.597656 280.238281 142.359375 280.238281 C 144.121094 280.238281 145.554688 278.804688 145.554688 277.042969 C 145.554688 275.28125 144.121094 273.847656 142.359375 273.847656 Z M 142.359375 273.847656 " fill-opacity="1" fill-rule="nonzero"/><path fill="#e89105" d="M 166.640625 136.339844 L 166.921875 131.472656 L 175.359375 134.527344 L 169.332031 136.875 Z M 166.640625 136.339844 " fill-opacity="1" fill-rule="nonzero"/><path fill="#e89105" d="M 126.070312 235.109375 L 123.050781 235.109375 L 123.050781 217.890625 L 129.503906 211.441406 L 131.632812 213.574219 L 126.070312 219.140625 Z M 126.070312 235.109375 " fill-opacity="1" fill-rule="nonzero"/><path fill="#e89105" d="M 186.386719 111.402344 L 189.4375 111.402344 L 189.4375 139.246094 L 186.386719 139.246094 Z M 186.386719 111.402344 " fill-opacity="1" fill-rule="nonzero"/><path fill="#e89105" d="M 187.226562 127.953125 L 176.90625 117.632812 L 176.90625 94.71875 L 179.960938 94.71875 L 179.960938 116.367188 L 189.386719 125.792969 Z M 187.226562 127.953125 " fill-opacity="1" fill-rule="nonzero"/><path fill="#e89105" d="M 178.433594 96.972656 C 174.964844 96.972656 172.144531 94.152344 172.144531 90.683594 C 172.144531 87.214844 174.964844 84.394531 178.433594 84.394531 C 181.898438 84.394531 184.722656 87.214844 184.722656 90.683594 C 184.722656 94.148438 181.902344 96.972656 178.433594 96.972656 Z M 178.433594 87.449219 C 176.648438 87.449219 175.199219 88.902344 175.199219 90.683594 C 175.199219 92.46875 176.648438 93.917969 178.433594 93.917969 C 180.214844 93.917969 181.667969 92.46875 181.667969 90.683594 C 181.667969 88.902344 180.214844 87.449219 178.433594 87.449219 Z M 178.433594 87.449219 " fill-opacity="1" fill-rule="nonzero"/><path fill="#e89105" d="M 187.914062 113.152344 C 184.449219 113.152344 181.625 110.332031 181.625 106.863281 C 181.625 103.394531 184.445312 100.574219 187.914062 100.574219 C 191.382812 100.574219 194.203125 103.394531 194.203125 106.863281 C 194.203125 110.332031 191.378906 113.152344 187.914062 113.152344 Z M 187.914062 103.628906 C 186.128906 103.628906 184.679688 105.078125 184.679688 106.863281 C 184.679688 108.644531 186.128906 110.097656 187.914062 110.097656 C 189.699219 110.097656 191.148438 108.644531 191.148438 106.863281 C 191.148438 105.078125 189.699219 103.628906 187.914062 103.628906 Z M 187.914062 103.628906 " fill-opacity="1" fill-rule="nonzero"/><path fill="#fcc300" d="M 184.421875 164.683594 C 184.421875 164.6875 184.421875 164.6875 184.421875 164.6875 C 181.058594 173.527344 177.734375 173.277344 177.734375 173.277344 C 177.734375 173.277344 179.8125 174.773438 174.617188 178.347656 C 169.421875 181.921875 170.253906 188.574219 171.875 190.570312 C 167.800781 188.074219 167.050781 180.84375 171.875 175.566406 C 164.765625 176.148438 159.195312 175.8125 157.90625 169.703125 C 155.992188 171.324219 155.453125 175.851562 158.691406 178.640625 C 158.46875 178.511719 148.679688 172.964844 155.871094 163.472656 C 152.628906 159.515625 147.410156 159.761719 145.78125 159.949219 L 145.714844 159.957031 C 145.519531 159.980469 145.386719 160 145.320312 160.011719 L 145.292969 160.015625 L 145.285156 160.019531 L 145.277344 160.019531 L 145.273438 160.023438 C 145.273438 160.023438 145.273438 160.019531 145.273438 160.019531 C 145.414062 159.84375 150.160156 153.867188 160.320312 159.273438 C 170.628906 164.757812 176.070312 170.660156 184.421875 164.679688 C 184.429688 164.679688 184.425781 164.679688 184.421875 164.683594 Z M 186.367188 137.75 L 186.367188 141.304688 L 183.476562 135.648438 C 181.320312 134.292969 179.007812 133.273438 176.542969 132.574219 L 176.542969 135.726562 L 174.558594 132.082031 C 171.683594 131.476562 168.625 131.261719 165.386719 131.40625 L 170.929688 135.257812 C 168.875 135.246094 167.011719 135.421875 165.355469 135.800781 L 165.355469 139.246094 L 163.597656 136.300781 C 162.101562 136.824219 160.808594 137.554688 159.730469 138.484375 C 159.394531 138.769531 159.085938 139.078125 158.796875 139.402344 L 163.078125 143.253906 L 167.558594 147.285156 L 161.738281 145.105469 L 156.601562 143.183594 C 156.128906 144.527344 155.839844 146.058594 155.734375 147.765625 C 152.804688 149.539062 150.253906 151.480469 148.160156 153.613281 C 144.984375 156.855469 142.867188 160.546875 142.105469 164.8125 L 142.105469 155.777344 C 138.675781 157.988281 136.824219 160.949219 135.621094 163.980469 C 135.1875 165.0625 134.835938 166.148438 134.535156 167.214844 L 138.078125 163.652344 L 133.730469 170.164062 C 133.035156 172.71875 132.34375 174.921875 130.949219 176.25 C 133.441406 175.917969 135.265625 174.554688 136.570312 172.382812 C 137.015625 171.640625 137.398438 170.800781 137.730469 169.878906 C 139.15625 173.621094 138.296875 178.160156 136.726562 182.941406 C 136.679688 183.082031 136.636719 183.226562 136.585938 183.375 C 136.539062 183.527344 136.484375 183.6875 136.429688 183.851562 C 141.429688 180.921875 139.601562 168.992188 146.492188 165.296875 C 142.097656 175.847656 146.3125 178.773438 149.347656 185.128906 L 150.550781 184.011719 L 154.167969 180.640625 L 151.039062 185.5625 L 150.144531 186.972656 C 150.988281 189.152344 151.632812 191.75 151.800781 195.089844 C 153.398438 187.441406 158.15625 182.164062 165.550781 178.878906 C 157.578125 184.824219 155.394531 195.402344 162.734375 201.75 C 159.046875 202.652344 155.941406 204.683594 153.664062 208.328125 C 148.800781 209.796875 143.207031 212.355469 137.609375 216.785156 C 150.972656 209.800781 161.738281 209.019531 165.652344 208.996094 C 165.71875 208.992188 165.785156 208.992188 165.847656 208.988281 C 161.136719 209.675781 156.78125 210.847656 153.367188 211.953125 C 153.480469 213.238281 153.660156 214.429688 153.902344 215.535156 C 149.609375 217.078125 144.878906 219.488281 140.148438 223.234375 C 153.507812 216.25 164.277344 215.464844 168.1875 215.441406 C 168.1875 215.441406 168.160156 215.449219 168.109375 215.457031 C 167.8125 215.515625 166.699219 215.738281 165.070312 216.140625 C 164.953125 216.171875 164.835938 216.203125 164.707031 216.234375 C 164.402344 216.3125 164.078125 216.398438 163.738281 216.488281 C 163.613281 216.523438 163.480469 216.554688 163.347656 216.597656 C 161.839844 217.011719 160.0625 217.550781 158.167969 218.222656 C 157.800781 218.355469 157.425781 218.488281 157.042969 218.632812 C 156.402344 218.867188 155.746094 219.125 155.085938 219.398438 C 155.4375 220.226562 155.835938 220.992188 156.273438 221.695312 C 152.539062 222.921875 148.339844 224.949219 144.140625 228.277344 C 154.671875 222.769531 163.222656 222.007812 166.613281 221.953125 C 166.683594 221.953125 166.75 221.949219 166.816406 221.941406 C 166.816406 221.941406 162.589844 223.003906 158.53125 224.492188 C 159.835938 225.742188 161.34375 226.699219 162.996094 227.425781 L 167.71875 222.625 L 166.273438 228.199219 C 176.265625 228.359375 182 222.566406 185.746094 213.988281 C 182.839844 199.964844 166.109375 203.210938 166.105469 189.324219 C 166.160156 189.445312 167.691406 193.066406 171.832031 193.8125 C 174.121094 190.039062 177.171875 188.113281 180.292969 190.109375 C 183.414062 192.105469 185.566406 192.328125 187.902344 192.328125 L 187.902344 146.511719 C 187.902344 142.042969 187.902344 139.140625 187.902344 139.140625 C 187.40625 138.652344 186.894531 138.191406 186.367188 137.75 Z M 186.367188 137.75 " fill-opacity="1" fill-rule="nonzero"/><path fill="#ffe18d" d="M 168.257812 173.027344 C 163.210938 173.367188 160.785156 172.007812 159.757812 170.210938 C 158.523438 168.0625 159.292969 165.292969 159.949219 164.089844 C 161.988281 165.128906 165.519531 167.375 165.519531 167.375 C 163.980469 167.667969 161.90625 167.5 161.90625 167.5 C 161.90625 167.5 161.617188 169.460938 164.910156 171.480469 C 165.761719 172.007812 166.855469 172.53125 168.257812 173.027344 Z M 168.257812 173.027344 " fill-opacity="1" fill-rule="nonzero"/><path fill="#ffe18d" d="M 187.910156 225.105469 L 187.910156 255.3125 C 187.910156 255.3125 181.777344 249.734375 179.015625 241.730469 C 178.621094 242.96875 179.183594 248.15625 179.183594 248.15625 C 179.183594 248.15625 176.820312 246.859375 173.15625 240.945312 L 174.3125 246.410156 C 174.3125 246.410156 167.632812 241.507812 168.476562 235.761719 C 168.914062 232.78125 174.121094 230.027344 179.03125 228.070312 C 183.597656 226.242188 187.910156 225.105469 187.910156 225.105469 Z M 187.910156 225.105469 " fill-opacity="1" fill-rule="nonzero"/><path fill="#ffffff" d="M 145.320312 160.011719 C 145.386719 160 145.523438 159.976562 145.71875 159.953125 Z M 145.320312 160.011719 " fill-opacity="1" fill-rule="nonzero"/><path fill="#e89105" d="M 184.40625 164.6875 C 176.066406 170.652344 170.621094 164.75 160.320312 159.269531 C 150.160156 153.863281 145.414062 159.835938 145.273438 160.011719 C 145.3125 159.871094 146.171875 156.59375 148.160156 153.613281 C 150.257812 151.480469 152.808594 149.542969 155.738281 147.765625 C 155.84375 146.058594 156.132812 144.527344 156.605469 143.183594 L 161.738281 145.105469 C 161.347656 145.738281 160.972656 146.449219 160.613281 147.246094 C 162.863281 146.164062 165.203125 146.746094 165.203125 146.746094 C 165.203125 146.746094 152.6875 149.75 149.9375 155.835938 C 158.027344 153.5 163.613281 155.917969 170.875 162.09375 C 177.886719 168.0625 184.011719 164.902344 184.40625 164.6875 Z M 184.40625 164.6875 " fill-opacity="1" fill-rule="nonzero"/><path fill="#e89105" d="M 187.910156 139.140625 C 187.910156 139.140625 187.910156 142.042969 187.910156 146.511719 C 185.9375 144.375 179.523438 138.300781 170.121094 137.820312 C 173.207031 139.574219 174.039062 141.65625 174.039062 141.65625 C 174.039062 141.65625 168.558594 137.929688 163.773438 142.519531 C 163.542969 142.742188 163.308594 142.984375 163.082031 143.25 L 158.800781 139.398438 C 159.089844 139.074219 159.402344 138.769531 159.734375 138.480469 C 160.816406 137.550781 162.109375 136.824219 163.601562 136.296875 L 165.363281 139.242188 L 165.363281 135.800781 C 167.019531 135.417969 168.878906 135.238281 170.9375 135.253906 L 165.390625 131.402344 C 168.628906 131.257812 171.6875 131.472656 174.566406 132.082031 L 176.546875 135.722656 L 176.546875 132.570312 C 179.015625 133.273438 181.328125 134.289062 183.480469 135.644531 L 186.371094 141.300781 L 186.371094 137.75 C 186.894531 138.191406 187.40625 138.652344 187.910156 139.140625 Z M 187.910156 139.140625 " fill-opacity="1" fill-rule="nonzero"/><path fill="#e89105" d="M 148.234375 174.496094 C 148.132812 177.554688 149.433594 180.648438 150.550781 184.011719 L 149.351562 185.125 C 146.3125 178.769531 142.105469 175.84375 146.492188 165.292969 C 139.601562 168.988281 141.433594 180.917969 136.429688 183.847656 C 136.484375 183.683594 136.539062 183.527344 136.589844 183.371094 C 136.640625 183.222656 136.683594 183.082031 136.730469 182.941406 C 138.164062 178.441406 138 176.117188 136.570312 172.378906 C 135.277344 176.003906 134.292969 175.804688 130.953125 176.246094 C 132.347656 174.917969 133.035156 172.714844 133.730469 170.160156 L 138.082031 163.648438 L 134.535156 167.210938 C 134.84375 166.144531 135.191406 165.058594 135.621094 163.976562 C 136.828125 160.949219 138.683594 157.984375 142.109375 155.773438 C 140.453125 157.605469 139.699219 160.488281 139.371094 163.050781 C 138.992188 166.027344 139.179688 168.582031 139.179688 168.582031 C 139.179688 168.582031 143.296875 163.523438 149.515625 162.726562 C 148.191406 161.222656 145.425781 160.074219 145.285156 160.011719 C 145.285156 160.011719 145.285156 160.011719 145.289062 160.011719 C 145.59375 160.058594 151.578125 161.039062 153.351562 164.589844 C 148.917969 170.15625 152.910156 178.039062 152.910156 178.039062 C 152.910156 178.039062 150.101562 177.796875 148.234375 174.496094 Z M 148.234375 174.496094 " fill-opacity="1" fill-rule="nonzero"/><path fill="#e89105" d="M 151.042969 185.5625 C 151.917969 188.476562 152.488281 191.605469 151.804688 195.085938 C 151.636719 191.746094 150.988281 189.148438 150.148438 186.972656 Z M 151.042969 185.5625 " fill-opacity="1" fill-rule="nonzero"/><path fill="#ffe18d" d="M 185.753906 213.980469 C 182.003906 222.558594 176.269531 228.355469 166.28125 228.191406 L 167.726562 222.617188 L 163.003906 227.421875 C 161.351562 226.691406 159.84375 225.738281 158.539062 224.488281 C 162.597656 223 166.824219 221.9375 166.824219 221.9375 C 166.757812 221.941406 166.691406 221.949219 166.621094 221.949219 C 163.230469 222.003906 154.683594 222.765625 144.148438 228.273438 C 148.347656 224.945312 152.546875 222.917969 156.28125 221.6875 C 155.84375 220.984375 155.449219 220.222656 155.09375 219.394531 C 155.753906 219.121094 156.410156 218.863281 157.050781 218.625 C 157.429688 218.484375 157.808594 218.347656 158.175781 218.214844 C 160.074219 217.542969 161.847656 217.003906 163.359375 216.589844 C 163.488281 216.554688 163.621094 216.515625 163.746094 216.484375 C 164.089844 216.394531 164.410156 216.308594 164.71875 216.226562 C 164.839844 216.199219 164.960938 216.167969 165.078125 216.136719 C 166.707031 215.730469 167.820312 215.511719 168.117188 215.453125 C 168.140625 215.449219 168.160156 215.449219 168.175781 215.445312 C 168.179688 215.445312 168.183594 215.441406 168.191406 215.441406 L 168.195312 215.4375 C 164.285156 215.464844 153.515625 216.246094 140.15625 223.234375 C 144.890625 219.484375 149.617188 217.074219 153.910156 215.53125 C 153.671875 214.425781 153.492188 213.238281 153.375 211.949219 C 156.789062 210.84375 161.148438 209.671875 165.855469 208.984375 C 165.792969 208.988281 165.726562 208.992188 165.664062 208.992188 C 161.746094 209.015625 150.980469 209.796875 137.617188 216.78125 C 143.214844 212.351562 148.808594 209.792969 153.671875 208.324219 C 155.949219 204.679688 159.054688 202.648438 162.742188 201.746094 C 155.402344 195.398438 157.585938 184.820312 165.558594 178.875 C 165.398438 179.074219 158.300781 187.988281 164.292969 196.5625 C 164.144531 192.339844 166.058594 189.40625 166.113281 189.316406 C 166.113281 203.203125 182.84375 199.960938 185.753906 213.980469 Z M 185.753906 213.980469 " fill-opacity="1" fill-rule="nonzero"/><path fill="#ffe18d" d="M 171.875 190.570312 C 165.644531 187.859375 165.871094 180.917969 167.910156 177.554688 C 155.664062 176.355469 157.910156 169.703125 157.910156 169.703125 C 159.199219 175.8125 164.769531 176.148438 171.875 175.566406 C 167.054688 180.84375 167.804688 188.074219 171.875 190.570312 Z M 171.875 190.570312 " fill-opacity="1" fill-rule="nonzero"/><path fill="#e89105" d="M 183.574219 171.25 C 177.929688 178.5 182.230469 187.582031 182.3125 187.753906 C 179.496094 186.492188 177.390625 182.535156 177.992188 178.511719 C 170.730469 183.554688 171.875 190.566406 171.875 190.566406 C 170.253906 188.570312 169.421875 181.921875 174.621094 178.34375 C 179.816406 174.773438 177.738281 173.273438 177.738281 173.273438 C 177.738281 173.273438 181.058594 173.527344 184.421875 164.683594 C 183.652344 169.6875 180.214844 174.25 180.214844 174.25 C 180.214844 174.25 182.074219 172.214844 183.574219 171.25 Z M 183.574219 171.25 " fill-opacity="1" fill-rule="nonzero"/><path fill="#e89105" d="M 140.148438 223.234375 C 144.878906 219.484375 149.609375 217.074219 153.902344 215.53125 C 153.664062 214.425781 153.484375 213.238281 153.371094 211.945312 C 156.78125 210.839844 161.136719 209.667969 165.851562 208.984375 C 158.496094 211.1875 155.179688 215.554688 155.179688 215.554688 C 155.179688 215.554688 165.445312 214.066406 168.1875 215.4375 C 164.277344 215.460938 153.511719 216.246094 140.148438 223.234375 Z M 140.148438 223.234375 " fill-opacity="1" fill-rule="nonzero"/><path fill="#e89105" d="M 165.851562 208.984375 C 165.785156 208.984375 165.71875 208.988281 165.65625 208.992188 C 161.746094 209.015625 150.976562 209.796875 137.613281 216.78125 C 143.207031 212.351562 148.804688 209.789062 153.667969 208.324219 C 155.941406 204.679688 159.046875 202.648438 162.738281 201.746094 C 162.738281 201.746094 159.171875 203.640625 157.214844 208.1875 C 160.902344 207.71875 165.851562 208.984375 165.851562 208.984375 Z M 165.851562 208.984375 " fill-opacity="1" fill-rule="nonzero"/><path fill="#e89105" d="M 185.753906 213.980469 C 182.003906 222.558594 176.269531 228.355469 166.28125 228.191406 L 167.726562 222.617188 L 163.003906 227.421875 C 161.351562 226.691406 159.84375 225.738281 158.539062 224.488281 C 162.597656 223 166.824219 221.9375 166.824219 221.9375 C 166.757812 221.941406 166.691406 221.949219 166.621094 221.949219 C 163.230469 222.003906 154.683594 222.765625 144.148438 228.273438 C 148.347656 224.945312 152.546875 222.917969 156.28125 221.6875 C 155.84375 220.984375 155.449219 220.222656 155.09375 219.394531 C 155.753906 219.121094 156.410156 218.863281 157.050781 218.625 C 157.429688 218.484375 157.808594 218.347656 158.175781 218.214844 C 160.074219 217.542969 161.847656 217.003906 163.359375 216.589844 C 163.488281 216.554688 163.621094 216.515625 163.746094 216.484375 C 164.089844 216.394531 164.410156 216.308594 164.71875 216.226562 C 164.839844 216.199219 164.960938 216.167969 165.078125 216.136719 C 166.707031 215.730469 167.820312 215.511719 168.117188 215.453125 C 168.140625 215.449219 168.160156 215.449219 168.175781 215.445312 C 164.953125 216.441406 158.316406 220.730469 158.316406 220.730469 C 158.316406 220.730469 169.214844 220.882812 177.539062 214.617188 C 176.179688 219.808594 173.441406 222.398438 173.300781 222.527344 C 173.683594 222.320312 190.921875 212.886719 176.972656 205.289062 C 163.003906 197.683594 166.058594 189.476562 166.121094 189.316406 C 166.113281 203.203125 182.84375 199.960938 185.753906 213.980469 Z M 185.753906 213.980469 " fill-opacity="1" fill-rule="nonzero"/><path fill="#e89105" d="M 187.910156 248.566406 L 187.910156 255.308594 C 187.910156 255.308594 181.777344 249.730469 179.015625 241.726562 C 178.621094 242.96875 179.183594 248.152344 179.183594 248.152344 C 179.183594 248.152344 176.820312 246.855469 173.15625 240.941406 L 174.3125 246.40625 C 174.3125 246.40625 167.632812 241.507812 168.476562 235.757812 C 168.914062 232.777344 174.121094 230.027344 179.03125 228.066406 C 176.042969 230.648438 173.15625 234.421875 174.636719 238.683594 C 174.636719 238.683594 176.285156 235.378906 179.6875 232.175781 C 181.011719 238.457031 184.460938 244.15625 187.910156 248.566406 Z M 187.910156 248.566406 " fill-opacity="1" fill-rule="nonzero"/><path fill="#e89105" d="M 133.679688 104.628906 L 135.8125 102.496094 L 144.003906 110.6875 L 141.871094 112.820312 Z M 133.679688 104.628906 " fill-opacity="1" fill-rule="nonzero"/><path fill="#e89105" d="M 132.472656 106.699219 C 129.042969 106.699219 126.257812 103.914062 126.257812 100.484375 C 126.257812 97.058594 129.042969 94.273438 132.472656 94.273438 C 135.898438 94.273438 138.6875 97.058594 138.6875 100.484375 C 138.683594 103.914062 135.894531 106.699219 132.472656 106.699219 Z M 132.472656 97.289062 C 130.710938 97.289062 129.277344 98.722656 129.277344 100.484375 C 129.277344 102.246094 130.710938 103.679688 132.472656 103.679688 C 134.234375 103.679688 135.667969 102.246094 135.667969 100.484375 C 135.667969 98.722656 134.234375 97.289062 132.472656 97.289062 Z M 132.472656 97.289062 " fill-opacity="1" fill-rule="nonzero"/><path fill="#e89105" d="M 196.246094 137.207031 L 199.261719 137.207031 L 199.261719 127.324219 L 212.988281 113.59375 L 245.3125 113.59375 L 254.960938 123.246094 L 257.089844 121.109375 L 246.5625 110.578125 L 211.738281 110.578125 L 196.246094 126.074219 Z M 196.246094 137.207031 " fill-opacity="1" fill-rule="nonzero"/><path fill="#e89105" d="M 267.746094 171.722656 L 270.761719 171.722656 L 270.761719 152.628906 L 270.320312 152.1875 L 241.027344 122.898438 L 213.835938 122.898438 L 207.378906 129.351562 L 207.378906 140.734375 L 210.398438 140.734375 L 210.398438 130.601562 L 215.082031 125.914062 L 239.78125 125.914062 L 267.746094 153.878906 Z M 267.746094 171.722656 " fill-opacity="1" fill-rule="nonzero"/><path fill="#e89105" d="M 211.242188 144.613281 L 221.304688 135.351562 L 229.457031 135.351562 L 235.199219 141.09375 L 237.335938 138.960938 L 230.710938 132.335938 L 220.132812 132.335938 L 209.199219 142.390625 Z M 211.242188 144.613281 " fill-opacity="1" fill-rule="nonzero"/><path fill="#e89105" d="M 250.503906 187.121094 L 253.519531 187.121094 L 253.519531 175.175781 L 239.890625 161.546875 L 236.4375 161.546875 L 236.4375 164.566406 L 238.640625 164.566406 L 250.503906 176.425781 Z M 250.503906 187.121094 " fill-opacity="1" fill-rule="nonzero"/><path fill="#e89105" d="M 254.683594 158.859375 L 257.703125 158.859375 L 257.703125 149.667969 L 250.027344 141.996094 L 244.589844 141.996094 L 244.589844 145.011719 L 248.777344 145.011719 L 254.683594 150.917969 Z M 254.683594 158.859375 " fill-opacity="1" fill-rule="nonzero"/><path fill="#e89105" d="M 270.089844 216.019531 L 273.105469 216.019531 L 273.105469 194.765625 L 253.078125 174.734375 L 250.941406 176.867188 L 270.089844 196.015625 Z M 270.089844 216.019531 " fill-opacity="1" fill-rule="nonzero"/><path fill="#e89105" d="M 241.300781 230.167969 L 246.972656 224.5 L 246.972656 201.40625 L 221.042969 175.476562 L 218.910156 177.609375 L 243.957031 202.65625 L 243.957031 223.246094 L 239.167969 228.035156 Z M 241.300781 230.167969 " fill-opacity="1" fill-rule="nonzero"/><path fill="#e89105" d="M 253.816406 258.714844 L 263.570312 248.960938 L 263.570312 218.003906 L 246.53125 200.960938 L 244.398438 203.097656 L 260.554688 219.253906 L 260.554688 247.710938 L 251.683594 256.582031 Z M 253.816406 258.714844 " fill-opacity="1" fill-rule="nonzero"/><path fill="#e89105" d="M 218.207031 259.09375 L 223.554688 253.746094 L 223.554688 233.832031 L 205.453125 215.730469 L 203.320312 217.863281 L 220.535156 235.082031 L 220.535156 252.496094 L 216.074219 256.957031 Z M 218.207031 259.09375 " fill-opacity="1" fill-rule="nonzero"/><path fill="#e89105" d="M 232.253906 273.613281 L 235.269531 273.613281 L 235.269531 256.9375 L 223.113281 244.78125 L 220.980469 246.914062 L 232.253906 258.1875 Z M 232.253906 273.613281 " fill-opacity="1" fill-rule="nonzero"/><path fill="#e89105" d="M 200.535156 281.878906 L 201.164062 281.878906 L 204.101562 278.9375 L 204.101562 254.53125 L 223.113281 235.523438 L 220.980469 233.390625 L 201.082031 253.285156 L 201.082031 277.6875 L 199.46875 279.304688 L 200.535156 280.371094 Z M 200.535156 281.878906 " fill-opacity="1" fill-rule="nonzero"/><path fill="#e89105" d="M 190.996094 283.695312 C 190.996094 280.269531 193.785156 277.480469 197.210938 277.480469 C 200.636719 277.480469 203.425781 280.269531 203.425781 283.695312 C 203.425781 287.121094 200.636719 289.910156 197.210938 289.910156 C 193.785156 289.910156 190.996094 287.121094 190.996094 283.695312 Z M 194.015625 283.695312 C 194.015625 285.457031 195.449219 286.890625 197.210938 286.890625 C 198.972656 286.890625 200.40625 285.457031 200.40625 283.695312 C 200.40625 281.933594 198.972656 280.5 197.210938 280.5 C 195.449219 280.5 194.015625 281.933594 194.015625 283.695312 Z M 194.015625 283.695312 " fill-opacity="1" fill-rule="nonzero"/><path fill="#e89105" d="M 208.140625 261.15625 C 208.140625 257.730469 210.925781 254.945312 214.351562 254.945312 C 217.78125 254.945312 220.566406 257.730469 220.566406 261.15625 C 220.566406 264.585938 217.78125 267.371094 214.351562 267.371094 C 210.925781 267.371094 208.140625 264.585938 208.140625 261.15625 Z M 211.15625 261.15625 C 211.15625 262.917969 212.589844 264.351562 214.351562 264.351562 C 216.113281 264.351562 217.546875 262.917969 217.546875 261.15625 C 217.546875 259.394531 216.113281 257.960938 214.351562 257.960938 C 212.589844 257.960938 211.15625 259.394531 211.15625 261.15625 Z M 211.15625 261.15625 " fill-opacity="1" fill-rule="nonzero"/><path fill="#e89105" d="M 243.367188 260.664062 C 243.367188 257.238281 246.15625 254.449219 249.582031 254.449219 C 253.007812 254.449219 255.796875 257.238281 255.796875 260.664062 C 255.796875 264.089844 253.007812 266.878906 249.582031 266.878906 C 246.15625 266.875 243.367188 264.089844 243.367188 260.664062 Z M 246.386719 260.664062 C 246.386719 262.425781 247.820312 263.859375 249.582031 263.859375 C 251.34375 263.859375 252.777344 262.425781 252.777344 260.664062 C 252.777344 258.902344 251.34375 257.46875 249.582031 257.46875 C 247.820312 257.464844 246.386719 258.898438 246.386719 260.664062 Z M 246.386719 260.664062 " fill-opacity="1" fill-rule="nonzero"/><path fill="#e89105" d="M 231.828125 231.488281 C 231.828125 228.0625 234.617188 225.277344 238.042969 225.277344 C 241.46875 225.277344 244.257812 228.0625 244.257812 231.488281 C 244.257812 234.917969 241.46875 237.703125 238.042969 237.703125 C 234.617188 237.703125 231.828125 234.917969 231.828125 231.488281 Z M 234.84375 231.488281 C 234.84375 233.25 236.277344 234.683594 238.039062 234.683594 C 239.800781 234.683594 241.234375 233.25 241.234375 231.488281 C 241.234375 229.726562 239.800781 228.292969 238.039062 228.292969 C 236.277344 228.292969 234.84375 229.726562 234.84375 231.488281 Z M 234.84375 231.488281 " fill-opacity="1" fill-rule="nonzero"/><path fill="#e89105" d="M 245.039062 238.476562 C 245.039062 235.050781 247.824219 232.261719 251.25 232.261719 C 254.679688 232.261719 257.464844 235.050781 257.464844 238.476562 C 257.464844 241.902344 254.679688 244.691406 251.25 244.691406 C 247.824219 244.691406 245.039062 241.902344 245.039062 238.476562 Z M 248.054688 238.476562 C 248.054688 240.238281 249.488281 241.671875 251.25 241.671875 C 253.011719 241.671875 254.445312 240.238281 254.445312 238.476562 C 254.445312 236.714844 253.011719 235.28125 251.25 235.28125 C 249.488281 235.28125 248.054688 236.714844 248.054688 238.476562 Z M 248.054688 238.476562 " fill-opacity="1" fill-rule="nonzero"/><path fill="#e89105" d="M 245.5 191.824219 C 245.5 188.398438 248.285156 185.613281 251.710938 185.613281 C 255.140625 185.613281 257.925781 188.398438 257.925781 191.824219 C 257.925781 195.253906 255.140625 198.039062 251.710938 198.039062 C 248.285156 198.039062 245.5 195.253906 245.5 191.824219 Z M 248.515625 191.824219 C 248.515625 193.585938 249.949219 195.019531 251.710938 195.019531 C 253.472656 195.019531 254.90625 193.585938 254.90625 191.824219 C 254.90625 190.0625 253.472656 188.628906 251.710938 188.628906 C 249.949219 188.628906 248.515625 190.0625 248.515625 191.824219 Z M 248.515625 191.824219 " fill-opacity="1" fill-rule="nonzero"/><path fill="#e89105" d="M 263.039062 176.242188 C 263.039062 172.816406 265.828125 170.03125 269.253906 170.03125 C 272.679688 170.03125 275.464844 172.816406 275.464844 176.242188 C 275.464844 179.671875 272.679688 182.457031 269.253906 182.457031 C 265.824219 182.457031 263.039062 179.667969 263.039062 176.242188 Z M 266.058594 176.242188 C 266.058594 178.003906 267.492188 179.4375 269.253906 179.4375 C 271.015625 179.4375 272.449219 178.003906 272.449219 176.242188 C 272.449219 174.480469 271.015625 173.046875 269.253906 173.046875 C 267.492188 173.046875 266.058594 174.480469 266.058594 176.242188 Z M 266.058594 176.242188 " fill-opacity="1" fill-rule="nonzero"/><path fill="#e89105" d="M 249.785156 163.566406 C 249.785156 160.140625 252.574219 157.351562 256 157.351562 C 259.425781 157.351562 262.214844 160.140625 262.214844 163.566406 C 262.214844 166.996094 259.425781 169.78125 256 169.78125 C 252.574219 169.78125 249.785156 166.996094 249.785156 163.566406 Z M 252.800781 163.566406 C 252.800781 165.328125 254.234375 166.761719 255.996094 166.761719 C 257.757812 166.761719 259.191406 165.328125 259.191406 163.566406 C 259.191406 161.804688 257.757812 160.371094 255.996094 160.371094 C 254.234375 160.371094 252.800781 161.804688 252.800781 163.566406 Z M 252.800781 163.566406 " fill-opacity="1" fill-rule="nonzero"/><path fill="#e89105" d="M 233.695312 143.011719 C 233.695312 139.585938 236.484375 136.796875 239.910156 136.796875 C 243.335938 136.796875 246.125 139.585938 246.125 143.011719 C 246.125 146.4375 243.335938 149.226562 239.910156 149.226562 C 236.484375 149.226562 233.695312 146.4375 233.695312 143.011719 Z M 236.710938 143.011719 C 236.710938 144.773438 238.144531 146.207031 239.90625 146.207031 C 241.667969 146.207031 243.101562 144.773438 243.101562 143.011719 C 243.101562 141.25 241.667969 139.816406 239.90625 139.816406 C 238.144531 139.816406 236.710938 141.25 236.710938 143.011719 Z M 236.710938 143.011719 " fill-opacity="1" fill-rule="nonzero"/><path fill="#e89105" d="M 252.121094 125.410156 C 252.121094 121.980469 254.90625 119.195312 258.335938 119.195312 C 261.761719 119.195312 264.546875 121.980469 264.546875 125.410156 C 264.546875 128.835938 261.761719 131.621094 258.335938 131.621094 C 254.90625 131.621094 252.121094 128.832031 252.121094 125.410156 Z M 255.136719 125.410156 C 255.136719 127.171875 256.570312 128.605469 258.332031 128.605469 C 260.09375 128.605469 261.527344 127.171875 261.527344 125.410156 C 261.527344 123.648438 260.09375 122.214844 258.332031 122.214844 C 256.570312 122.210938 255.136719 123.644531 255.136719 125.410156 Z M 255.136719 125.410156 " fill-opacity="1" fill-rule="nonzero"/><path fill="#e89105" d="M 265.382812 220.183594 C 265.382812 216.757812 268.171875 213.96875 271.597656 213.96875 C 275.023438 213.96875 277.8125 216.757812 277.8125 220.183594 C 277.8125 223.609375 275.023438 226.398438 271.597656 226.398438 C 268.171875 226.398438 265.382812 223.609375 265.382812 220.183594 Z M 268.402344 220.183594 C 268.402344 221.945312 269.835938 223.378906 271.597656 223.378906 C 273.359375 223.378906 274.792969 221.945312 274.792969 220.183594 C 274.792969 218.421875 273.359375 216.988281 271.597656 216.988281 C 269.835938 216.988281 268.402344 218.421875 268.402344 220.183594 Z M 268.402344 220.183594 " fill-opacity="1" fill-rule="nonzero"/><path fill="#e89105" d="M 227.234375 277.042969 C 227.234375 273.617188 230.023438 270.828125 233.449219 270.828125 C 236.878906 270.828125 239.664062 273.617188 239.664062 277.042969 C 239.664062 280.46875 236.878906 283.257812 233.449219 283.257812 C 230.023438 283.257812 227.234375 280.46875 227.234375 277.042969 Z M 230.253906 277.042969 C 230.253906 278.804688 231.6875 280.238281 233.449219 280.238281 C 235.210938 280.238281 236.644531 278.804688 236.644531 277.042969 C 236.644531 275.28125 235.210938 273.847656 233.449219 273.847656 C 231.6875 273.847656 230.253906 275.28125 230.253906 277.042969 Z M 230.253906 277.042969 " fill-opacity="1" fill-rule="nonzero"/><path fill="#e89105" d="M 209.167969 136.339844 L 208.890625 131.472656 L 200.453125 134.527344 L 206.480469 136.875 Z M 209.167969 136.339844 " fill-opacity="1" fill-rule="nonzero"/><path fill="#e89105" d="M 249.742188 235.109375 L 252.761719 235.109375 L 252.761719 217.890625 L 246.308594 211.441406 L 244.175781 213.574219 L 249.742188 219.140625 Z M 249.742188 235.109375 " fill-opacity="1" fill-rule="nonzero"/><path fill="#e89105" d="M 186.371094 111.402344 L 189.421875 111.402344 L 189.421875 139.246094 L 186.371094 139.246094 Z M 186.371094 111.402344 " fill-opacity="1" fill-rule="nonzero"/><path fill="#e89105" d="M 188.582031 127.953125 L 198.902344 117.632812 L 198.902344 94.71875 L 195.851562 94.71875 L 195.851562 116.367188 L 186.425781 125.792969 Z M 188.582031 127.953125 " fill-opacity="1" fill-rule="nonzero"/><path fill="#e89105" d="M 191.089844 90.683594 C 191.089844 87.214844 193.910156 84.394531 197.378906 84.394531 C 200.847656 84.394531 203.667969 87.214844 203.667969 90.683594 C 203.667969 94.152344 200.847656 96.972656 197.378906 96.972656 C 193.910156 96.972656 191.089844 94.148438 191.089844 90.683594 Z M 194.144531 90.683594 C 194.144531 92.46875 195.59375 93.917969 197.378906 93.917969 C 199.164062 93.917969 200.613281 92.46875 200.613281 90.683594 C 200.613281 88.902344 199.164062 87.449219 197.378906 87.449219 C 195.59375 87.449219 194.144531 88.902344 194.144531 90.683594 Z M 194.144531 90.683594 " fill-opacity="1" fill-rule="nonzero"/><path fill="#e89105" d="M 181.609375 106.863281 C 181.609375 103.394531 184.429688 100.574219 187.898438 100.574219 C 191.363281 100.574219 194.1875 103.394531 194.1875 106.863281 C 194.1875 110.332031 191.367188 113.152344 187.898438 113.152344 C 184.433594 113.152344 181.609375 110.332031 181.609375 106.863281 Z M 184.664062 106.863281 C 184.664062 108.644531 186.113281 110.097656 187.898438 110.097656 C 189.679688 110.097656 191.132812 108.644531 191.132812 106.863281 C 191.132812 105.078125 189.679688 103.628906 187.898438 103.628906 C 186.113281 103.628906 184.664062 105.078125 184.664062 106.863281 Z M 184.664062 106.863281 " fill-opacity="1" fill-rule="nonzero"/><path fill="#fcc300" d="M 191.382812 164.675781 C 191.386719 164.675781 191.386719 164.675781 191.386719 164.679688 C 199.734375 170.65625 205.179688 164.753906 215.484375 159.273438 C 225.644531 153.867188 230.394531 159.839844 230.53125 160.015625 C 230.535156 160.019531 230.535156 160.019531 230.535156 160.019531 L 230.527344 160.015625 L 230.519531 160.015625 L 230.511719 160.011719 L 230.488281 160.011719 C 230.421875 160 230.285156 159.976562 230.089844 159.953125 L 230.027344 159.945312 C 228.394531 159.757812 223.179688 159.511719 219.933594 163.46875 C 227.125 172.960938 217.335938 178.511719 217.113281 178.636719 C 220.347656 175.851562 219.808594 171.324219 217.898438 169.703125 C 216.609375 175.8125 211.039062 176.144531 203.933594 175.5625 C 208.753906 180.839844 208.003906 188.074219 203.933594 190.566406 C 205.554688 188.570312 206.386719 181.921875 201.1875 178.34375 C 195.992188 174.773438 198.070312 173.273438 198.070312 173.273438 C 198.070312 173.273438 194.75 173.527344 191.386719 164.683594 C 191.386719 164.679688 191.386719 164.679688 191.382812 164.679688 C 191.386719 164.679688 191.382812 164.679688 191.382812 164.675781 Z M 187.902344 139.140625 C 187.902344 139.140625 187.902344 142.042969 187.902344 146.511719 L 187.902344 192.320312 C 190.238281 192.320312 192.390625 192.101562 195.511719 190.105469 C 198.636719 188.109375 201.683594 190.035156 203.972656 193.808594 C 208.113281 193.0625 209.648438 189.441406 209.699219 189.316406 C 209.695312 203.203125 192.96875 199.960938 190.058594 213.980469 C 193.808594 222.558594 199.542969 228.355469 209.53125 228.191406 L 208.085938 222.617188 L 212.808594 227.421875 C 214.464844 226.691406 215.96875 225.738281 217.273438 224.488281 C 213.21875 223 208.988281 221.9375 208.988281 221.9375 C 209.058594 221.941406 209.125 221.949219 209.191406 221.949219 C 212.582031 222.003906 221.132812 222.765625 231.667969 228.273438 C 227.46875 224.945312 223.265625 222.917969 219.535156 221.6875 C 219.96875 220.984375 220.367188 220.222656 220.71875 219.394531 C 220.058594 219.121094 219.402344 218.863281 218.761719 218.625 C 218.382812 218.484375 218.007812 218.347656 217.636719 218.214844 C 215.738281 217.542969 213.96875 217.003906 212.457031 216.589844 C 212.324219 216.554688 212.195312 216.515625 212.066406 216.484375 C 211.726562 216.394531 211.402344 216.308594 211.097656 216.226562 C 210.972656 216.199219 210.851562 216.167969 210.734375 216.136719 C 209.105469 215.730469 207.992188 215.511719 207.699219 215.453125 C 207.644531 215.445312 207.617188 215.4375 207.617188 215.4375 C 211.53125 215.460938 222.296875 216.246094 235.660156 223.230469 C 230.925781 219.480469 226.195312 217.070312 221.902344 215.53125 C 222.140625 214.425781 222.324219 213.234375 222.4375 211.945312 C 219.027344 210.839844 214.667969 209.667969 209.957031 208.984375 C 210.023438 208.984375 210.089844 208.988281 210.152344 208.992188 C 214.066406 209.011719 224.832031 209.796875 238.195312 216.777344 C 232.597656 212.347656 227.003906 209.789062 222.140625 208.320312 C 219.863281 204.679688 216.761719 202.648438 213.070312 201.742188 C 220.410156 195.394531 218.230469 184.816406 210.257812 178.875 C 217.648438 182.15625 222.40625 187.429688 224.003906 195.085938 C 224.171875 191.742188 224.820312 189.144531 225.660156 186.96875 L 224.765625 185.558594 L 221.640625 180.636719 L 225.257812 184.007812 L 226.457031 185.125 C 229.492188 178.765625 233.703125 175.839844 229.316406 165.289062 C 236.207031 168.988281 234.375 180.917969 239.378906 183.84375 C 239.324219 183.683594 239.265625 183.523438 239.21875 183.367188 C 239.167969 183.222656 239.125 183.078125 239.078125 182.9375 C 237.507812 178.15625 236.644531 173.617188 238.078125 169.875 C 238.40625 170.796875 238.789062 171.632812 239.238281 172.375 C 240.542969 174.550781 242.363281 175.914062 244.855469 176.242188 C 243.460938 174.914062 242.773438 172.710938 242.078125 170.160156 L 237.726562 163.648438 L 241.273438 167.210938 C 240.964844 166.140625 240.617188 165.054688 240.183594 163.976562 C 238.980469 160.945312 237.125 157.980469 233.699219 155.769531 L 233.699219 164.808594 C 232.9375 160.539062 230.824219 156.847656 227.648438 153.605469 C 225.550781 151.476562 223 149.539062 220.070312 147.761719 C 219.964844 146.050781 219.675781 144.523438 219.203125 143.175781 L 214.070312 145.097656 L 208.246094 147.277344 L 212.730469 143.25 L 217.011719 139.398438 C 216.722656 139.070312 216.410156 138.765625 216.074219 138.480469 C 214.996094 137.546875 213.703125 136.820312 212.207031 136.296875 L 210.449219 139.238281 L 210.449219 135.796875 C 208.792969 135.417969 206.929688 135.238281 204.875 135.25 L 210.417969 131.398438 C 207.183594 131.257812 204.121094 131.46875 201.246094 132.078125 L 199.265625 135.71875 L 199.265625 132.566406 C 196.796875 133.269531 194.484375 134.285156 192.332031 135.640625 L 189.4375 141.300781 L 189.4375 137.746094 C 188.917969 138.191406 188.40625 138.652344 187.902344 139.140625 Z M 187.902344 139.140625 " fill-opacity="1" fill-rule="nonzero"/><path fill="#ffe18d" d="M 207.550781 173.027344 C 212.597656 173.367188 215.027344 172.007812 216.054688 170.210938 C 217.285156 168.0625 216.519531 165.292969 215.859375 164.089844 C 213.824219 165.128906 210.292969 167.375 210.292969 167.375 C 211.832031 167.667969 213.90625 167.5 213.90625 167.5 C 213.90625 167.5 214.195312 169.460938 210.902344 171.480469 C 210.050781 172.007812 208.953125 172.53125 207.550781 173.027344 Z M 207.550781 173.027344 " fill-opacity="1" fill-rule="nonzero"/><path fill="#ffe18d" d="M 187.902344 225.105469 L 187.902344 255.3125 C 187.902344 255.3125 194.035156 249.734375 196.792969 241.730469 C 197.1875 242.96875 196.625 248.15625 196.625 248.15625 C 196.625 248.15625 198.992188 246.859375 202.65625 240.945312 L 201.5 246.410156 C 201.5 246.410156 208.179688 241.507812 207.332031 235.761719 C 206.894531 232.78125 201.691406 230.027344 196.78125 228.070312 C 192.214844 226.242188 187.902344 225.105469 187.902344 225.105469 Z M 187.902344 225.105469 " fill-opacity="1" fill-rule="nonzero"/><path fill="#ffffff" d="M 230.488281 160.011719 C 230.421875 160 230.289062 159.976562 230.09375 159.953125 Z M 230.488281 160.011719 " fill-opacity="1" fill-rule="nonzero"/><path fill="#e89105" d="M 191.402344 164.6875 C 199.746094 170.652344 205.1875 164.75 215.492188 159.269531 C 225.652344 153.863281 230.398438 159.835938 230.535156 160.011719 C 230.5 159.871094 229.640625 156.59375 227.648438 153.613281 C 225.554688 151.480469 223.003906 149.542969 220.074219 147.765625 C 219.96875 146.058594 219.679688 144.527344 219.207031 143.183594 L 214.070312 145.105469 C 214.464844 145.738281 214.839844 146.449219 215.199219 147.246094 C 212.945312 146.164062 210.609375 146.746094 210.609375 146.746094 C 210.609375 146.746094 223.125 149.75 225.875 155.835938 C 217.78125 153.5 212.195312 155.917969 204.9375 162.09375 C 197.925781 168.0625 191.800781 164.902344 191.402344 164.6875 Z M 191.402344 164.6875 " fill-opacity="1" fill-rule="nonzero"/><path fill="#e89105" d="M 187.902344 139.140625 C 187.902344 139.140625 187.902344 142.042969 187.902344 146.511719 C 189.875 144.375 196.285156 138.300781 205.691406 137.820312 C 202.601562 139.574219 201.769531 141.65625 201.769531 141.65625 C 201.769531 141.65625 207.25 137.929688 212.039062 142.519531 C 212.269531 142.742188 212.503906 142.984375 212.730469 143.25 L 217.011719 139.398438 C 216.722656 139.074219 216.410156 138.769531 216.074219 138.480469 C 214.996094 137.550781 213.703125 136.824219 212.207031 136.296875 L 210.449219 139.242188 L 210.449219 135.800781 C 208.792969 135.417969 206.929688 135.238281 204.875 135.253906 L 210.417969 131.402344 C 207.183594 131.257812 204.121094 131.472656 201.246094 132.082031 L 199.265625 135.722656 L 199.265625 132.570312 C 196.796875 133.273438 194.484375 134.289062 192.332031 135.644531 L 189.4375 141.300781 L 189.4375 137.75 C 188.917969 138.191406 188.40625 138.652344 187.902344 139.140625 Z M 187.902344 139.140625 " fill-opacity="1" fill-rule="nonzero"/><path fill="#e89105" d="M 227.578125 174.496094 C 227.679688 177.554688 226.378906 180.648438 225.257812 184.011719 L 226.460938 185.125 C 229.496094 178.769531 233.707031 175.84375 229.316406 165.292969 C 236.210938 168.988281 234.378906 180.917969 239.378906 183.847656 C 239.324219 183.683594 239.269531 183.527344 239.21875 183.371094 C 239.171875 183.222656 239.125 183.082031 239.078125 182.941406 C 237.644531 178.441406 237.8125 176.117188 239.238281 172.378906 C 240.535156 176.003906 241.515625 175.804688 244.859375 176.246094 C 243.464844 174.917969 242.773438 172.714844 242.078125 170.160156 L 237.730469 163.648438 L 241.273438 167.210938 C 240.96875 166.144531 240.621094 165.058594 240.1875 163.976562 C 238.984375 160.949219 237.128906 157.984375 233.703125 155.773438 C 235.359375 157.605469 236.109375 160.488281 236.4375 163.050781 C 236.820312 166.027344 236.632812 168.582031 236.632812 168.582031 C 236.632812 168.582031 232.515625 163.523438 226.296875 162.726562 C 227.621094 161.222656 230.382812 160.074219 230.523438 160.011719 C 230.214844 160.058594 224.234375 161.039062 222.457031 164.589844 C 226.890625 170.15625 222.902344 178.039062 222.902344 178.039062 C 222.902344 178.039062 225.707031 177.796875 227.578125 174.496094 Z M 227.578125 174.496094 " fill-opacity="1" fill-rule="nonzero"/><path fill="#e89105" d="M 224.769531 185.5625 C 223.894531 188.476562 223.324219 191.605469 224.003906 195.085938 C 224.171875 191.746094 224.820312 189.148438 225.660156 186.972656 Z M 224.769531 185.5625 " fill-opacity="1" fill-rule="nonzero"/><path fill="#ffe18d" d="M 190.054688 213.980469 C 193.804688 222.558594 199.539062 228.355469 209.527344 228.191406 L 208.082031 222.617188 L 212.804688 227.421875 C 214.460938 226.691406 215.964844 225.738281 217.273438 224.488281 C 213.214844 223 208.984375 221.9375 208.984375 221.9375 C 209.054688 221.941406 209.121094 221.949219 209.1875 221.949219 C 212.582031 222.003906 221.128906 222.765625 231.664062 228.273438 C 227.464844 224.945312 223.261719 222.917969 219.53125 221.6875 C 219.964844 220.984375 220.363281 220.222656 220.714844 219.394531 C 220.058594 219.121094 219.402344 218.863281 218.757812 218.625 C 218.382812 218.484375 218.003906 218.347656 217.632812 218.214844 C 215.738281 217.542969 213.964844 217.003906 212.453125 216.589844 C 212.320312 216.554688 212.191406 216.515625 212.066406 216.484375 C 211.722656 216.394531 211.398438 216.308594 211.09375 216.226562 C 210.96875 216.199219 210.847656 216.167969 210.734375 216.136719 C 209.105469 215.730469 207.988281 215.511719 207.695312 215.453125 C 207.671875 215.449219 207.652344 215.449219 207.636719 215.445312 C 207.632812 215.445312 207.628906 215.441406 207.621094 215.441406 L 207.613281 215.4375 C 211.527344 215.464844 222.296875 216.246094 235.65625 223.234375 C 230.921875 219.484375 226.195312 217.074219 221.902344 215.53125 C 222.136719 214.425781 222.320312 213.238281 222.4375 211.949219 C 219.023438 210.84375 214.664062 209.671875 209.957031 208.984375 C 210.019531 208.988281 210.085938 208.992188 210.148438 208.992188 C 214.0625 209.015625 224.828125 209.796875 238.191406 216.78125 C 232.59375 212.351562 227 209.792969 222.136719 208.324219 C 219.863281 204.679688 216.757812 202.648438 213.066406 201.746094 C 220.40625 195.398438 218.226562 184.820312 210.253906 178.875 C 210.414062 179.074219 217.507812 187.988281 211.519531 196.5625 C 211.664062 192.339844 209.753906 189.40625 209.695312 189.316406 C 209.695312 203.203125 192.96875 199.960938 190.054688 213.980469 Z M 190.054688 213.980469 " fill-opacity="1" fill-rule="nonzero"/><path fill="#ffe18d" d="M 203.933594 190.570312 C 210.167969 187.859375 209.941406 180.917969 207.902344 177.554688 C 220.144531 176.355469 217.902344 169.703125 217.902344 169.703125 C 216.613281 175.8125 211.042969 176.148438 203.933594 175.566406 C 208.757812 180.84375 208.007812 188.074219 203.933594 190.570312 Z M 203.933594 190.570312 " fill-opacity="1" fill-rule="nonzero"/><path fill="#e89105" d="M 192.238281 171.25 C 197.882812 178.5 193.578125 187.582031 193.5 187.753906 C 196.316406 186.492188 198.421875 182.535156 197.820312 178.511719 C 205.082031 183.554688 203.933594 190.566406 203.933594 190.566406 C 205.554688 188.570312 206.386719 181.921875 201.191406 178.34375 C 195.996094 174.773438 198.074219 173.273438 198.074219 173.273438 C 198.074219 173.273438 194.75 173.527344 191.386719 164.683594 C 192.160156 169.6875 195.597656 174.25 195.597656 174.25 C 195.597656 174.25 193.738281 172.214844 192.238281 171.25 Z M 192.238281 171.25 " fill-opacity="1" fill-rule="nonzero"/><path fill="#e89105" d="M 235.664062 223.234375 C 230.933594 219.484375 226.203125 217.074219 221.910156 215.53125 C 222.148438 214.425781 222.324219 213.238281 222.441406 211.945312 C 219.03125 210.839844 214.671875 209.667969 209.960938 208.984375 C 217.316406 211.1875 220.632812 215.554688 220.632812 215.554688 C 220.632812 215.554688 210.367188 214.066406 207.625 215.4375 C 211.53125 215.460938 222.300781 216.246094 235.664062 223.234375 Z M 235.664062 223.234375 " fill-opacity="1" fill-rule="nonzero"/><path fill="#e89105" d="M 209.960938 208.984375 C 210.023438 208.984375 210.089844 208.988281 210.152344 208.992188 C 214.066406 209.015625 224.835938 209.796875 238.199219 216.78125 C 232.605469 212.351562 227.007812 209.789062 222.144531 208.324219 C 219.871094 204.679688 216.761719 202.648438 213.074219 201.746094 C 213.074219 201.746094 216.636719 203.640625 218.597656 208.1875 C 214.910156 207.71875 209.960938 208.984375 209.960938 208.984375 Z M 209.960938 208.984375 " fill-opacity="1" fill-rule="nonzero"/><path fill="#e89105" d="M 190.054688 213.980469 C 193.804688 222.558594 199.539062 228.355469 209.527344 228.191406 L 208.082031 222.617188 L 212.804688 227.421875 C 214.460938 226.691406 215.964844 225.738281 217.273438 224.488281 C 213.214844 223 208.984375 221.9375 208.984375 221.9375 C 209.054688 221.941406 209.121094 221.949219 209.1875 221.949219 C 212.582031 222.003906 221.128906 222.765625 231.664062 228.273438 C 227.464844 224.945312 223.261719 222.917969 219.53125 221.6875 C 219.964844 220.984375 220.363281 220.222656 220.714844 219.394531 C 220.058594 219.121094 219.402344 218.863281 218.757812 218.625 C 218.382812 218.484375 218.003906 218.347656 217.632812 218.214844 C 215.738281 217.542969 213.964844 217.003906 212.453125 216.589844 C 212.320312 216.554688 212.191406 216.515625 212.066406 216.484375 C 211.722656 216.394531 211.398438 216.308594 211.09375 216.226562 C 210.96875 216.199219 210.847656 216.167969 210.734375 216.136719 C 209.105469 215.730469 207.988281 215.511719 207.695312 215.453125 C 207.671875 215.449219 207.652344 215.449219 207.636719 215.445312 C 210.855469 216.441406 217.492188 220.730469 217.492188 220.730469 C 217.492188 220.730469 206.597656 220.882812 198.273438 214.617188 C 199.632812 219.808594 202.371094 222.398438 202.511719 222.527344 C 202.125 222.320312 184.890625 212.886719 198.835938 205.289062 C 212.804688 197.683594 209.75 189.476562 209.691406 189.316406 C 209.695312 203.203125 192.96875 199.960938 190.054688 213.980469 Z M 190.054688 213.980469 " fill-opacity="1" fill-rule="nonzero"/><path fill="#e89105" d="M 187.902344 248.566406 L 187.902344 255.308594 C 187.902344 255.308594 194.035156 249.730469 196.792969 241.726562 C 197.1875 242.96875 196.625 248.152344 196.625 248.152344 C 196.625 248.152344 198.992188 246.855469 202.65625 240.941406 L 201.5 246.40625 C 201.5 246.40625 208.179688 241.507812 207.332031 235.757812 C 206.894531 232.777344 201.691406 230.027344 196.78125 228.066406 C 199.769531 230.648438 202.65625 234.421875 201.175781 238.683594 C 201.175781 238.683594 199.527344 235.378906 196.125 232.175781 C 194.800781 238.457031 191.347656 244.15625 187.902344 248.566406 Z M 187.902344 248.566406 " fill-opacity="1" fill-rule="nonzero"/><path fill="#e89105" d="M 231.804688 110.6875 L 239.996094 102.496094 L 242.128906 104.628906 L 233.9375 112.820312 Z M 231.804688 110.6875 " fill-opacity="1" fill-rule="nonzero"/><path fill="#e89105" d="M 237.128906 100.484375 C 237.128906 97.058594 239.914062 94.273438 243.34375 94.273438 C 246.769531 94.273438 249.554688 97.058594 249.554688 100.484375 C 249.554688 103.914062 246.769531 106.699219 243.34375 106.699219 C 239.914062 106.699219 237.128906 103.914062 237.128906 100.484375 Z M 240.144531 100.484375 C 240.144531 102.246094 241.578125 103.679688 243.339844 103.679688 C 245.101562 103.679688 246.535156 102.246094 246.535156 100.484375 C 246.535156 98.722656 245.101562 97.289062 243.339844 97.289062 C 241.578125 97.289062 240.144531 98.722656 240.144531 100.484375 Z M 240.144531 100.484375 " fill-opacity="1" fill-rule="nonzero"/></svg>