<svg xmlns="http://www.w3.org/2000/svg" xmlns:xlink="http://www.w3.org/1999/xlink" width="500" zoomAndPan="magnify" viewBox="0 0 375 374.999991" height="500" preserveAspectRatio="xMidYMid meet" version="1.0"><defs><g/><clipPath id="6b71d735ec"><path d="M 105 187 L 112.332031 187 L 112.332031 195 L 105 195 Z M 105 187 " clip-rule="nonzero"/></clipPath></defs><path fill="#e89105" d="M 60.171875 147.171875 L 58.578125 147.171875 L 58.578125 141.945312 L 51.316406 134.679688 L 34.21875 134.679688 L 29.113281 139.785156 L 27.988281 138.65625 L 33.554688 133.085938 L 51.976562 133.085938 L 60.171875 141.28125 Z M 60.171875 147.171875 " fill-opacity="1" fill-rule="nonzero"/><path fill="#e89105" d="M 22.351562 165.429688 L 20.753906 165.429688 L 20.753906 155.328125 L 20.988281 155.09375 L 36.484375 139.601562 L 50.867188 139.601562 L 54.28125 143.015625 L 54.28125 149.039062 L 52.6875 149.039062 L 52.6875 143.675781 L 50.207031 141.199219 L 37.144531 141.199219 L 22.351562 155.992188 Z M 22.351562 165.429688 " fill-opacity="1" fill-rule="nonzero"/><path fill="#e89105" d="M 52.242188 151.089844 L 46.917969 146.191406 L 42.605469 146.191406 L 39.566406 149.226562 L 38.4375 148.097656 L 41.941406 144.59375 L 47.539062 144.59375 L 53.320312 149.914062 Z M 52.242188 151.089844 " fill-opacity="1" fill-rule="nonzero"/><path fill="#e89105" d="M 31.472656 173.574219 L 29.875 173.574219 L 29.875 167.257812 L 37.085938 160.046875 L 38.910156 160.046875 L 38.910156 161.644531 L 37.746094 161.644531 L 31.472656 167.917969 Z M 31.472656 173.574219 " fill-opacity="1" fill-rule="nonzero"/><path fill="#e89105" d="M 29.261719 158.625 L 27.664062 158.625 L 27.664062 153.765625 L 31.722656 149.703125 L 34.597656 149.703125 L 34.597656 151.300781 L 32.386719 151.300781 L 29.261719 154.425781 Z M 29.261719 158.625 " fill-opacity="1" fill-rule="nonzero"/><path fill="#e89105" d="M 21.109375 188.859375 L 19.515625 188.859375 L 19.515625 177.617188 L 30.109375 167.019531 L 31.238281 168.148438 L 21.109375 178.277344 Z M 21.109375 188.859375 " fill-opacity="1" fill-rule="nonzero"/><path fill="#e89105" d="M 36.339844 196.34375 L 33.339844 193.347656 L 33.339844 181.128906 L 47.054688 167.414062 L 48.183594 168.542969 L 34.933594 181.792969 L 34.933594 192.683594 L 37.46875 195.21875 Z M 36.339844 196.34375 " fill-opacity="1" fill-rule="nonzero"/><path fill="#e89105" d="M 29.71875 211.445312 L 24.558594 206.285156 L 24.558594 189.910156 L 33.574219 180.894531 L 34.699219 182.023438 L 26.15625 190.570312 L 26.15625 205.625 L 30.847656 210.316406 Z M 29.71875 211.445312 " fill-opacity="1" fill-rule="nonzero"/><path fill="#e89105" d="M 48.554688 211.644531 L 45.726562 208.816406 L 45.726562 198.28125 L 55.300781 188.707031 L 56.429688 189.835938 L 47.324219 198.945312 L 47.324219 208.15625 L 49.683594 210.515625 Z M 48.554688 211.644531 " fill-opacity="1" fill-rule="nonzero"/><path fill="#e89105" d="M 41.125 219.324219 L 39.53125 219.324219 L 39.53125 210.503906 L 45.960938 204.074219 L 47.089844 205.203125 L 41.125 211.167969 Z M 41.125 219.324219 " fill-opacity="1" fill-rule="nonzero"/><path fill="#e89105" d="M 57.902344 223.699219 L 57.570312 223.699219 L 56.015625 222.140625 L 56.015625 209.234375 L 45.960938 199.175781 L 47.089844 198.050781 L 57.613281 208.574219 L 57.613281 221.480469 L 58.46875 222.335938 L 57.902344 222.902344 Z M 57.902344 223.699219 " fill-opacity="1" fill-rule="nonzero"/><path fill="#e89105" d="M 59.660156 227.945312 C 57.847656 227.945312 56.375 226.472656 56.375 224.660156 C 56.375 222.847656 57.847656 221.371094 59.660156 221.371094 C 61.472656 221.371094 62.949219 222.847656 62.949219 224.660156 C 62.949219 226.472656 61.472656 227.945312 59.660156 227.945312 Z M 59.660156 222.96875 C 58.730469 222.96875 57.972656 223.726562 57.972656 224.660156 C 57.972656 225.589844 58.730469 226.347656 59.660156 226.347656 C 60.59375 226.347656 61.351562 225.589844 61.351562 224.660156 C 61.351562 223.726562 60.59375 222.96875 59.660156 222.96875 Z M 59.660156 222.96875 " fill-opacity="1" fill-rule="nonzero"/><path fill="#e89105" d="M 50.59375 216.023438 C 48.78125 216.023438 47.308594 214.550781 47.308594 212.738281 C 47.308594 210.925781 48.78125 209.449219 50.59375 209.449219 C 52.40625 209.449219 53.882812 210.925781 53.882812 212.738281 C 53.882812 214.550781 52.40625 216.023438 50.59375 216.023438 Z M 50.59375 211.046875 C 49.664062 211.046875 48.90625 211.804688 48.90625 212.738281 C 48.90625 213.667969 49.664062 214.425781 50.59375 214.425781 C 51.527344 214.425781 52.285156 213.667969 52.285156 212.738281 C 52.285156 211.804688 51.527344 211.046875 50.59375 211.046875 Z M 50.59375 211.046875 " fill-opacity="1" fill-rule="nonzero"/><path fill="#e89105" d="M 31.960938 215.761719 C 30.148438 215.761719 28.671875 214.289062 28.671875 212.476562 C 28.671875 210.660156 30.148438 209.1875 31.960938 209.1875 C 33.773438 209.1875 35.246094 210.660156 35.246094 212.476562 C 35.246094 214.289062 33.773438 215.761719 31.960938 215.761719 Z M 31.960938 210.785156 C 31.027344 210.785156 30.269531 211.542969 30.269531 212.476562 C 30.269531 213.40625 31.027344 214.164062 31.960938 214.164062 C 32.890625 214.164062 33.648438 213.40625 33.648438 212.476562 C 33.648438 211.542969 32.890625 210.785156 31.960938 210.785156 Z M 31.960938 210.785156 " fill-opacity="1" fill-rule="nonzero"/><path fill="#e89105" d="M 38.0625 200.332031 C 36.25 200.332031 34.777344 198.855469 34.777344 197.042969 C 34.777344 195.230469 36.25 193.757812 38.0625 193.757812 C 39.875 193.757812 41.351562 195.230469 41.351562 197.042969 C 41.351562 198.855469 39.875 200.332031 38.0625 200.332031 Z M 38.0625 195.355469 C 37.132812 195.355469 36.375 196.113281 36.375 197.042969 C 36.375 197.976562 37.132812 198.734375 38.0625 198.734375 C 38.996094 198.734375 39.753906 197.976562 39.753906 197.042969 C 39.753906 196.113281 38.996094 195.355469 38.0625 195.355469 Z M 38.0625 195.355469 " fill-opacity="1" fill-rule="nonzero"/><path fill="#e89105" d="M 31.074219 204.027344 C 29.261719 204.027344 27.789062 202.550781 27.789062 200.738281 C 27.789062 198.925781 29.261719 197.453125 31.074219 197.453125 C 32.886719 197.453125 34.363281 198.925781 34.363281 200.738281 C 34.363281 202.550781 32.886719 204.027344 31.074219 204.027344 Z M 31.074219 199.050781 C 30.144531 199.050781 29.386719 199.808594 29.386719 200.738281 C 29.386719 201.671875 30.144531 202.429688 31.074219 202.429688 C 32.007812 202.429688 32.765625 201.671875 32.765625 200.738281 C 32.765625 199.808594 32.007812 199.050781 31.074219 199.050781 Z M 31.074219 199.050781 " fill-opacity="1" fill-rule="nonzero"/><path fill="#e89105" d="M 30.832031 179.351562 C 29.019531 179.351562 27.546875 177.875 27.546875 176.0625 C 27.546875 174.25 29.019531 172.777344 30.832031 172.777344 C 32.644531 172.777344 34.121094 174.25 34.121094 176.0625 C 34.121094 177.875 32.644531 179.351562 30.832031 179.351562 Z M 30.832031 174.371094 C 29.898438 174.371094 29.140625 175.132812 29.140625 176.0625 C 29.140625 176.996094 29.898438 177.753906 30.832031 177.753906 C 31.765625 177.753906 32.523438 176.996094 32.523438 176.0625 C 32.523438 175.132812 31.765625 174.371094 30.832031 174.371094 Z M 30.832031 174.371094 " fill-opacity="1" fill-rule="nonzero"/><path fill="#e89105" d="M 21.550781 171.105469 C 19.738281 171.105469 18.265625 169.632812 18.265625 167.820312 C 18.265625 166.007812 19.738281 164.53125 21.550781 164.53125 C 23.367188 164.53125 24.839844 166.007812 24.839844 167.820312 C 24.839844 169.632812 23.367188 171.105469 21.550781 171.105469 Z M 21.550781 166.128906 C 20.621094 166.128906 19.863281 166.886719 19.863281 167.820312 C 19.863281 168.75 20.621094 169.507812 21.550781 169.507812 C 22.484375 169.507812 23.242188 168.75 23.242188 167.820312 C 23.246094 166.886719 22.484375 166.128906 21.550781 166.128906 Z M 21.550781 166.128906 " fill-opacity="1" fill-rule="nonzero"/><path fill="#e89105" d="M 28.566406 164.402344 C 26.753906 164.402344 25.277344 162.929688 25.277344 161.113281 C 25.277344 159.300781 26.753906 157.828125 28.566406 157.828125 C 30.378906 157.828125 31.851562 159.300781 31.851562 161.113281 C 31.851562 162.929688 30.378906 164.402344 28.566406 164.402344 Z M 28.566406 159.425781 C 27.632812 159.425781 26.875 160.183594 26.875 161.113281 C 26.875 162.046875 27.632812 162.804688 28.566406 162.804688 C 29.496094 162.804688 30.257812 162.046875 30.257812 161.113281 C 30.257812 160.183594 29.496094 159.425781 28.566406 159.425781 Z M 28.566406 159.425781 " fill-opacity="1" fill-rule="nonzero"/><path fill="#e89105" d="M 37.074219 153.527344 C 35.261719 153.527344 33.789062 152.054688 33.789062 150.242188 C 33.789062 148.429688 35.261719 146.953125 37.074219 146.953125 C 38.886719 146.953125 40.363281 148.429688 40.363281 150.242188 C 40.363281 152.054688 38.886719 153.527344 37.074219 153.527344 Z M 37.074219 148.550781 C 36.144531 148.550781 35.386719 149.308594 35.386719 150.242188 C 35.386719 151.171875 36.144531 151.933594 37.074219 151.933594 C 38.007812 151.933594 38.765625 151.171875 38.765625 150.242188 C 38.765625 149.308594 38.007812 148.550781 37.074219 148.550781 Z M 37.074219 148.550781 " fill-opacity="1" fill-rule="nonzero"/><path fill="#e89105" d="M 27.332031 144.214844 C 25.519531 144.214844 24.042969 142.742188 24.042969 140.929688 C 24.042969 139.117188 25.519531 137.640625 27.332031 137.640625 C 29.144531 137.640625 30.617188 139.117188 30.617188 140.929688 C 30.617188 142.742188 29.140625 144.214844 27.332031 144.214844 Z M 27.332031 139.238281 C 26.398438 139.238281 25.640625 139.996094 25.640625 140.929688 C 25.640625 141.859375 26.398438 142.621094 27.332031 142.621094 C 28.261719 142.621094 29.019531 141.859375 29.019531 140.929688 C 29.019531 139.996094 28.261719 139.238281 27.332031 139.238281 Z M 27.332031 139.238281 " fill-opacity="1" fill-rule="nonzero"/><path fill="#e89105" d="M 20.3125 194.351562 C 18.5 194.351562 17.027344 192.875 17.027344 191.0625 C 17.027344 189.25 18.5 187.777344 20.3125 187.777344 C 22.125 187.777344 23.601562 189.25 23.601562 191.0625 C 23.601562 192.875 22.125 194.351562 20.3125 194.351562 Z M 20.3125 189.375 C 19.382812 189.375 18.621094 190.132812 18.621094 191.0625 C 18.621094 191.996094 19.382812 192.753906 20.3125 192.753906 C 21.246094 192.753906 22.003906 191.996094 22.003906 191.0625 C 22.003906 190.132812 21.246094 189.375 20.3125 189.375 Z M 20.3125 189.375 " fill-opacity="1" fill-rule="nonzero"/><path fill="#e89105" d="M 40.492188 224.425781 C 38.679688 224.425781 37.203125 222.953125 37.203125 221.140625 C 37.203125 219.328125 38.679688 217.851562 40.492188 217.851562 C 42.304688 217.851562 43.777344 219.328125 43.777344 221.140625 C 43.777344 222.953125 42.304688 224.425781 40.492188 224.425781 Z M 40.492188 219.449219 C 39.558594 219.449219 38.800781 220.207031 38.800781 221.140625 C 38.800781 222.070312 39.558594 222.832031 40.492188 222.832031 C 41.425781 222.832031 42.183594 222.070312 42.183594 221.140625 C 42.183594 220.207031 41.425781 219.449219 40.492188 219.449219 Z M 40.492188 219.449219 " fill-opacity="1" fill-rule="nonzero"/><path fill="#e89105" d="M 53.335938 146.710938 L 53.484375 144.140625 L 57.945312 145.753906 L 54.757812 146.996094 Z M 53.335938 146.710938 " fill-opacity="1" fill-rule="nonzero"/><path fill="#e89105" d="M 31.875 198.957031 L 30.277344 198.957031 L 30.277344 189.851562 L 33.691406 186.4375 L 34.816406 187.566406 L 31.875 190.511719 Z M 31.875 198.957031 " fill-opacity="1" fill-rule="nonzero"/><path fill="#e89105" d="M 63.78125 133.523438 L 65.394531 133.523438 L 65.394531 148.25 L 63.78125 148.25 Z M 63.78125 133.523438 " fill-opacity="1" fill-rule="nonzero"/><path fill="#e89105" d="M 64.226562 142.277344 L 58.765625 136.816406 L 58.765625 124.695312 L 60.378906 124.695312 L 60.378906 136.148438 L 65.367188 141.132812 Z M 64.226562 142.277344 " fill-opacity="1" fill-rule="nonzero"/><path fill="#e89105" d="M 59.574219 125.890625 C 57.738281 125.890625 56.246094 124.398438 56.246094 122.5625 C 56.246094 120.726562 57.738281 119.234375 59.574219 119.234375 C 61.40625 119.234375 62.898438 120.726562 62.898438 122.5625 C 62.898438 124.394531 61.40625 125.890625 59.574219 125.890625 Z M 59.574219 120.851562 C 58.628906 120.851562 57.863281 121.621094 57.863281 122.5625 C 57.863281 123.507812 58.628906 124.273438 59.574219 124.273438 C 60.515625 124.273438 61.285156 123.507812 61.285156 122.5625 C 61.285156 121.621094 60.515625 120.851562 59.574219 120.851562 Z M 59.574219 120.851562 " fill-opacity="1" fill-rule="nonzero"/><path fill="#e89105" d="M 64.589844 134.445312 C 62.753906 134.445312 61.261719 132.953125 61.261719 131.121094 C 61.261719 129.285156 62.753906 127.792969 64.589844 127.792969 C 66.421875 127.792969 67.914062 129.285156 67.914062 131.121094 C 67.914062 132.953125 66.421875 134.445312 64.589844 134.445312 Z M 64.589844 129.410156 C 63.644531 129.410156 62.878906 130.175781 62.878906 131.121094 C 62.878906 132.0625 63.644531 132.832031 64.589844 132.832031 C 65.53125 132.832031 66.296875 132.0625 66.296875 131.121094 C 66.296875 130.175781 65.53125 129.410156 64.589844 129.410156 Z M 64.589844 129.410156 " fill-opacity="1" fill-rule="nonzero"/><path fill="#fcc300" d="M 62.742188 161.707031 C 60.960938 166.382812 59.203125 166.25 59.203125 166.25 C 59.203125 166.25 60.304688 167.042969 57.554688 168.933594 C 54.804688 170.824219 55.246094 174.34375 56.105469 175.398438 C 53.949219 174.078125 53.554688 170.253906 56.105469 167.460938 C 52.34375 167.769531 49.398438 167.59375 48.714844 164.363281 C 47.703125 165.21875 47.417969 167.613281 49.132812 169.089844 C 49.011719 169.019531 43.835938 166.085938 47.640625 161.0625 C 45.921875 158.972656 43.164062 159.101562 42.300781 159.199219 L 42.265625 159.203125 C 42.164062 159.21875 42.09375 159.226562 42.058594 159.234375 L 42.042969 159.238281 L 42.03125 159.238281 C 42.03125 159.238281 42.03125 159.238281 42.035156 159.238281 C 42.105469 159.144531 44.617188 155.984375 49.992188 158.84375 C 55.445312 161.746094 58.324219 164.867188 62.742188 161.703125 C 62.746094 161.703125 62.742188 161.703125 62.742188 161.707031 Z M 63.769531 147.460938 L 63.769531 149.339844 L 62.238281 146.347656 C 61.101562 145.628906 59.878906 145.089844 58.574219 144.71875 L 58.574219 146.386719 L 57.523438 144.460938 C 56.003906 144.140625 54.382812 144.027344 52.671875 144.101562 L 55.605469 146.140625 C 54.515625 146.132812 53.53125 146.226562 52.65625 146.429688 L 52.65625 148.25 L 51.726562 146.691406 C 50.933594 146.96875 50.25 147.355469 49.679688 147.847656 C 49.503906 148 49.339844 148.160156 49.183594 148.332031 L 51.449219 150.371094 L 53.820312 152.503906 L 50.742188 151.347656 L 48.027344 150.332031 C 47.773438 151.042969 47.621094 151.851562 47.566406 152.757812 C 46.015625 153.695312 44.667969 154.722656 43.558594 155.847656 C 41.878906 157.5625 40.761719 159.515625 40.359375 161.773438 L 40.359375 156.992188 C 38.542969 158.164062 37.5625 159.730469 36.925781 161.335938 C 36.699219 161.90625 36.511719 162.480469 36.351562 163.042969 L 38.226562 161.160156 L 35.925781 164.605469 C 35.558594 165.957031 35.195312 167.121094 34.457031 167.824219 C 35.773438 167.648438 36.738281 166.925781 37.429688 165.777344 C 37.664062 165.386719 37.867188 164.941406 38.042969 164.453125 C 38.796875 166.433594 38.34375 168.835938 37.511719 171.363281 C 37.488281 171.4375 37.464844 171.515625 37.4375 171.59375 C 37.410156 171.671875 37.382812 171.757812 37.355469 171.84375 C 40 170.296875 39.03125 163.984375 42.675781 162.03125 C 40.355469 167.609375 42.582031 169.15625 44.1875 172.519531 L 44.824219 171.929688 L 46.738281 170.148438 L 45.082031 172.75 L 44.609375 173.496094 C 45.054688 174.648438 45.394531 176.023438 45.484375 177.789062 C 46.332031 173.742188 48.847656 170.953125 52.757812 169.214844 C 48.539062 172.359375 47.386719 177.953125 51.269531 181.3125 C 49.316406 181.789062 47.675781 182.863281 46.472656 184.792969 C 43.898438 185.570312 40.941406 186.921875 37.980469 189.265625 C 45.046875 185.570312 50.742188 185.15625 52.8125 185.144531 C 52.847656 185.144531 52.882812 185.144531 52.914062 185.140625 C 50.421875 185.503906 48.121094 186.125 46.3125 186.707031 C 46.375 187.390625 46.46875 188.019531 46.597656 188.605469 C 44.324219 189.421875 41.824219 190.695312 39.320312 192.679688 C 46.386719 188.984375 52.085938 188.566406 54.152344 188.554688 C 54.152344 188.554688 54.140625 188.558594 54.113281 188.5625 C 53.957031 188.59375 53.367188 188.710938 52.503906 188.925781 C 52.441406 188.941406 52.378906 188.957031 52.3125 188.972656 C 52.152344 189.015625 51.980469 189.0625 51.800781 189.109375 C 51.734375 189.125 51.664062 189.144531 51.59375 189.167969 C 50.796875 189.386719 49.855469 189.671875 48.855469 190.023438 C 48.660156 190.097656 48.460938 190.167969 48.257812 190.242188 C 47.917969 190.367188 47.574219 190.503906 47.222656 190.648438 C 47.410156 191.085938 47.617188 191.492188 47.851562 191.863281 C 45.875 192.511719 43.652344 193.585938 41.433594 195.34375 C 47.003906 192.429688 51.527344 192.027344 53.320312 192 C 53.359375 192 53.390625 191.996094 53.429688 191.992188 C 53.429688 191.992188 51.191406 192.554688 49.046875 193.34375 C 49.738281 194.003906 50.53125 194.507812 51.40625 194.894531 L 53.90625 192.355469 L 53.140625 195.304688 C 58.425781 195.390625 61.460938 192.324219 63.441406 187.785156 C 61.902344 180.367188 53.054688 182.085938 53.050781 174.738281 C 53.082031 174.804688 53.890625 176.71875 56.082031 177.113281 C 57.292969 175.117188 58.90625 174.097656 60.558594 175.15625 C 62.207031 176.210938 63.347656 176.328125 64.582031 176.328125 L 64.582031 152.09375 C 64.582031 149.730469 64.582031 148.195312 64.582031 148.195312 C 64.320312 147.9375 64.046875 147.691406 63.769531 147.460938 Z M 63.769531 147.460938 " fill-opacity="1" fill-rule="nonzero"/><path fill="#ffe18d" d="M 54.191406 166.121094 C 51.519531 166.300781 50.238281 165.578125 49.695312 164.628906 C 49.042969 163.492188 49.449219 162.027344 49.796875 161.390625 C 50.875 161.941406 52.742188 163.128906 52.742188 163.128906 C 51.929688 163.285156 50.832031 163.195312 50.832031 163.195312 C 50.832031 163.195312 50.675781 164.234375 52.417969 165.300781 C 52.871094 165.578125 53.449219 165.859375 54.191406 166.121094 Z M 54.191406 166.121094 " fill-opacity="1" fill-rule="nonzero"/><path fill="#ffe18d" d="M 64.585938 193.667969 L 64.585938 209.644531 C 64.585938 209.644531 61.34375 206.695312 59.882812 202.460938 C 59.671875 203.117188 59.972656 205.859375 59.972656 205.859375 C 59.972656 205.859375 58.71875 205.175781 56.78125 202.042969 L 57.394531 204.9375 C 57.394531 204.9375 53.859375 202.34375 54.308594 199.304688 C 54.539062 197.726562 57.292969 196.269531 59.890625 195.234375 C 62.304688 194.265625 64.585938 193.667969 64.585938 193.667969 Z M 64.585938 193.667969 " fill-opacity="1" fill-rule="nonzero"/><path fill="#ffffff" d="M 42.058594 159.234375 C 42.09375 159.226562 42.164062 159.214844 42.269531 159.203125 Z M 42.058594 159.234375 " fill-opacity="1" fill-rule="nonzero"/><path fill="#e89105" d="M 62.734375 161.707031 C 58.320312 164.863281 55.441406 161.742188 49.992188 158.839844 C 44.617188 155.980469 42.105469 159.140625 42.035156 159.234375 C 42.050781 159.160156 42.507812 157.425781 43.558594 155.847656 C 44.667969 154.722656 46.019531 153.695312 47.566406 152.757812 C 47.625 151.851562 47.777344 151.042969 48.027344 150.332031 L 50.742188 151.347656 C 50.535156 151.683594 50.335938 152.058594 50.144531 152.480469 C 51.335938 151.910156 52.574219 152.214844 52.574219 152.214844 C 52.574219 152.214844 45.953125 153.804688 44.5 157.027344 C 48.78125 155.789062 51.734375 157.070312 55.574219 160.335938 C 59.285156 163.492188 62.523438 161.820312 62.734375 161.707031 Z M 62.734375 161.707031 " fill-opacity="1" fill-rule="nonzero"/><path fill="#e89105" d="M 64.585938 148.195312 C 64.585938 148.195312 64.585938 149.730469 64.585938 152.09375 C 63.542969 150.964844 60.152344 147.75 55.175781 147.496094 C 56.808594 148.421875 57.25 149.527344 57.25 149.527344 C 57.25 149.527344 54.351562 147.554688 51.820312 149.980469 C 51.695312 150.097656 51.574219 150.226562 51.453125 150.367188 L 49.1875 148.332031 C 49.339844 148.160156 49.507812 147.996094 49.683594 147.847656 C 50.253906 147.351562 50.9375 146.96875 51.730469 146.691406 L 52.660156 148.25 L 52.660156 146.425781 C 53.535156 146.226562 54.519531 146.128906 55.609375 146.136719 L 52.675781 144.101562 C 54.386719 144.023438 56.003906 144.136719 57.527344 144.460938 L 58.574219 146.386719 L 58.574219 144.71875 C 59.878906 145.089844 61.105469 145.628906 62.242188 146.34375 L 63.773438 149.335938 L 63.773438 147.457031 C 64.046875 147.691406 64.320312 147.9375 64.585938 148.195312 Z M 64.585938 148.195312 " fill-opacity="1" fill-rule="nonzero"/><path fill="#e89105" d="M 43.597656 166.894531 C 43.542969 168.511719 44.234375 170.152344 44.824219 171.929688 L 44.1875 172.519531 C 42.582031 169.15625 40.355469 167.609375 42.679688 162.027344 C 39.03125 163.984375 40 170.292969 37.355469 171.84375 C 37.382812 171.757812 37.414062 171.671875 37.441406 171.589844 C 37.464844 171.511719 37.488281 171.4375 37.515625 171.363281 C 38.273438 168.984375 38.183594 167.753906 37.429688 165.777344 C 36.746094 167.695312 36.226562 167.589844 34.457031 167.820312 C 35.195312 167.121094 35.558594 165.953125 35.925781 164.605469 L 38.230469 161.160156 L 36.351562 163.042969 C 36.515625 162.480469 36.699219 161.902344 36.929688 161.332031 C 37.566406 159.730469 38.546875 158.160156 40.359375 156.992188 C 39.484375 157.960938 39.085938 159.484375 38.910156 160.84375 C 38.710938 162.417969 38.808594 163.769531 38.808594 163.769531 C 38.808594 163.769531 40.988281 161.09375 44.277344 160.671875 C 43.578125 159.875 42.113281 159.265625 42.039062 159.234375 C 42.203125 159.261719 45.367188 159.777344 46.304688 161.65625 C 43.960938 164.601562 46.070312 168.769531 46.070312 168.769531 C 46.070312 168.769531 44.585938 168.644531 43.597656 166.894531 Z M 43.597656 166.894531 " fill-opacity="1" fill-rule="nonzero"/><path fill="#e89105" d="M 45.085938 172.75 C 45.546875 174.292969 45.847656 175.945312 45.488281 177.789062 C 45.398438 176.019531 45.058594 174.648438 44.613281 173.496094 Z M 45.085938 172.75 " fill-opacity="1" fill-rule="nonzero"/><path fill="#ffe18d" d="M 63.445312 187.78125 C 61.464844 192.320312 58.429688 195.386719 53.144531 195.300781 L 53.910156 192.351562 L 51.410156 194.890625 C 50.535156 194.503906 49.742188 194 49.050781 193.339844 C 51.195312 192.554688 53.433594 191.992188 53.433594 191.992188 C 53.398438 191.992188 53.363281 191.996094 53.324219 191.996094 C 51.53125 192.027344 47.007812 192.429688 41.4375 195.34375 C 43.65625 193.582031 45.878906 192.507812 47.855469 191.859375 C 47.625 191.488281 47.414062 191.082031 47.226562 190.644531 C 47.578125 190.5 47.921875 190.363281 48.261719 190.238281 C 48.464844 190.164062 48.664062 190.09375 48.859375 190.023438 C 49.863281 189.667969 50.800781 189.382812 51.597656 189.164062 C 51.667969 189.144531 51.738281 189.125 51.804688 189.105469 C 51.984375 189.058594 52.15625 189.011719 52.316406 188.972656 C 52.382812 188.953125 52.449219 188.9375 52.507812 188.921875 C 53.371094 188.707031 53.960938 188.589844 54.117188 188.5625 C 54.128906 188.558594 54.140625 188.558594 54.144531 188.558594 C 54.148438 188.558594 54.152344 188.554688 54.15625 188.554688 C 52.089844 188.566406 46.390625 188.980469 39.324219 192.675781 C 41.828125 190.691406 44.332031 189.417969 46.601562 188.601562 C 46.476562 188.019531 46.378906 187.386719 46.316406 186.707031 C 48.125 186.121094 50.429688 185.503906 52.921875 185.140625 C 52.886719 185.140625 52.851562 185.144531 52.816406 185.144531 C 50.746094 185.15625 45.050781 185.570312 37.984375 189.265625 C 40.945312 186.921875 43.902344 185.566406 46.476562 184.789062 C 47.679688 182.863281 49.324219 181.789062 51.273438 181.308594 C 47.390625 177.953125 48.546875 172.359375 52.761719 169.214844 C 52.679688 169.316406 48.925781 174.03125 52.09375 178.570312 C 52.015625 176.335938 53.027344 174.78125 53.058594 174.734375 C 53.058594 182.082031 61.90625 180.367188 63.445312 187.78125 Z M 63.445312 187.78125 " fill-opacity="1" fill-rule="nonzero"/><path fill="#ffe18d" d="M 56.105469 175.398438 C 52.808594 173.964844 52.925781 170.292969 54.007812 168.511719 C 47.53125 167.878906 48.71875 164.363281 48.71875 164.363281 C 49.398438 167.59375 52.34375 167.769531 56.105469 167.460938 C 53.554688 170.253906 53.949219 174.078125 56.105469 175.398438 Z M 56.105469 175.398438 " fill-opacity="1" fill-rule="nonzero"/><path fill="#e89105" d="M 62.292969 165.179688 C 59.304688 169.015625 61.582031 173.816406 61.625 173.910156 C 60.132812 173.242188 59.023438 171.148438 59.339844 169.019531 C 55.5 171.6875 56.105469 175.398438 56.105469 175.398438 C 55.246094 174.339844 54.808594 170.824219 57.554688 168.933594 C 60.304688 167.042969 59.207031 166.25 59.207031 166.25 C 59.207031 166.25 60.960938 166.382812 62.742188 161.707031 C 62.332031 164.351562 60.515625 166.765625 60.515625 166.765625 C 60.515625 166.765625 61.5 165.6875 62.292969 165.179688 Z M 62.292969 165.179688 " fill-opacity="1" fill-rule="nonzero"/><path fill="#e89105" d="M 39.320312 192.675781 C 41.824219 190.691406 44.324219 189.417969 46.597656 188.601562 C 46.472656 188.019531 46.375 187.386719 46.316406 186.707031 C 48.121094 186.121094 50.425781 185.5 52.917969 185.136719 C 49.027344 186.304688 47.273438 188.613281 47.273438 188.613281 C 47.273438 188.613281 52.703125 187.828125 54.152344 188.550781 C 52.085938 188.566406 46.390625 188.980469 39.320312 192.675781 Z M 39.320312 192.675781 " fill-opacity="1" fill-rule="nonzero"/><path fill="#e89105" d="M 52.917969 185.136719 C 52.882812 185.140625 52.847656 185.140625 52.816406 185.144531 C 50.746094 185.15625 45.050781 185.570312 37.980469 189.265625 C 40.941406 186.921875 43.898438 185.566406 46.472656 184.789062 C 47.675781 182.863281 49.320312 181.789062 51.269531 181.308594 C 51.269531 181.308594 49.386719 182.3125 48.347656 184.71875 C 50.300781 184.46875 52.917969 185.136719 52.917969 185.136719 Z M 52.917969 185.136719 " fill-opacity="1" fill-rule="nonzero"/><path fill="#e89105" d="M 63.445312 187.78125 C 61.464844 192.320312 58.429688 195.386719 53.144531 195.300781 L 53.910156 192.351562 L 51.410156 194.890625 C 50.535156 194.503906 49.742188 194 49.050781 193.339844 C 51.195312 192.554688 53.433594 191.992188 53.433594 191.992188 C 53.398438 191.992188 53.363281 191.996094 53.324219 191.996094 C 51.53125 192.027344 47.007812 192.429688 41.4375 195.34375 C 43.65625 193.582031 45.878906 192.507812 47.855469 191.859375 C 47.625 191.488281 47.414062 191.082031 47.226562 190.644531 C 47.578125 190.5 47.921875 190.363281 48.261719 190.238281 C 48.464844 190.164062 48.664062 190.09375 48.859375 190.023438 C 49.863281 189.667969 50.800781 189.382812 51.597656 189.164062 C 51.667969 189.144531 51.738281 189.125 51.804688 189.105469 C 51.984375 189.058594 52.15625 189.011719 52.316406 188.972656 C 52.382812 188.953125 52.449219 188.9375 52.507812 188.921875 C 53.371094 188.707031 53.960938 188.589844 54.117188 188.5625 C 54.128906 188.558594 54.140625 188.558594 54.144531 188.558594 C 52.441406 189.082031 48.933594 191.351562 48.933594 191.351562 C 48.933594 191.351562 54.695312 191.433594 59.101562 188.121094 C 58.382812 190.863281 56.933594 192.234375 56.859375 192.304688 C 57.0625 192.195312 66.179688 187.203125 58.800781 183.183594 C 51.410156 179.160156 53.027344 174.820312 53.058594 174.734375 C 53.058594 182.082031 61.90625 180.367188 63.445312 187.78125 Z M 63.445312 187.78125 " fill-opacity="1" fill-rule="nonzero"/><path fill="#e89105" d="M 64.585938 206.078125 L 64.585938 209.644531 C 64.585938 209.644531 61.34375 206.691406 59.882812 202.457031 C 59.671875 203.113281 59.972656 205.859375 59.972656 205.859375 C 59.972656 205.859375 58.71875 205.171875 56.78125 202.042969 L 57.394531 204.933594 C 57.394531 204.933594 53.859375 202.34375 54.308594 199.300781 C 54.539062 197.726562 57.292969 196.269531 59.890625 195.234375 C 58.308594 196.597656 56.78125 198.597656 57.566406 200.847656 C 57.566406 200.847656 58.4375 199.101562 60.238281 197.40625 C 60.9375 200.730469 62.761719 203.742188 64.585938 206.078125 Z M 64.585938 206.078125 " fill-opacity="1" fill-rule="nonzero"/><path fill="#e89105" d="M 35.902344 129.941406 L 37.027344 128.8125 L 41.363281 133.144531 L 40.234375 134.273438 Z M 35.902344 129.941406 " fill-opacity="1" fill-rule="nonzero"/><path fill="#e89105" d="M 35.261719 131.035156 C 33.449219 131.035156 31.972656 129.558594 31.972656 127.746094 C 31.972656 125.933594 33.449219 124.460938 35.261719 124.460938 C 37.074219 124.460938 38.546875 125.933594 38.546875 127.746094 C 38.546875 129.558594 37.074219 131.035156 35.261719 131.035156 Z M 35.261719 126.058594 C 34.328125 126.058594 33.570312 126.816406 33.570312 127.746094 C 33.570312 128.679688 34.328125 129.4375 35.261719 129.4375 C 36.191406 129.4375 36.953125 128.679688 36.953125 127.746094 C 36.953125 126.816406 36.191406 126.058594 35.261719 126.058594 Z M 35.261719 126.058594 " fill-opacity="1" fill-rule="nonzero"/><path fill="#e89105" d="M 68.996094 147.171875 L 70.589844 147.171875 L 70.589844 141.945312 L 77.851562 134.679688 L 94.949219 134.679688 L 100.054688 139.785156 L 101.179688 138.65625 L 95.609375 133.085938 L 77.191406 133.085938 L 68.996094 141.28125 Z M 68.996094 147.171875 " fill-opacity="1" fill-rule="nonzero"/><path fill="#e89105" d="M 106.816406 165.429688 L 108.414062 165.429688 L 108.414062 155.328125 L 108.179688 155.09375 L 92.683594 139.601562 L 78.300781 139.601562 L 74.886719 143.015625 L 74.886719 149.039062 L 76.480469 149.039062 L 76.480469 143.675781 L 78.960938 141.199219 L 92.023438 141.199219 L 106.816406 155.992188 Z M 106.816406 165.429688 " fill-opacity="1" fill-rule="nonzero"/><path fill="#e89105" d="M 76.925781 151.089844 L 82.25 146.191406 L 86.5625 146.191406 L 89.601562 149.226562 L 90.730469 148.097656 L 87.226562 144.59375 L 81.628906 144.59375 L 75.847656 149.914062 Z M 76.925781 151.089844 " fill-opacity="1" fill-rule="nonzero"/><path fill="#e89105" d="M 97.695312 173.574219 L 99.289062 173.574219 L 99.289062 167.257812 L 92.082031 160.046875 L 90.257812 160.046875 L 90.257812 161.644531 L 91.421875 161.644531 L 97.695312 167.917969 Z M 97.695312 173.574219 " fill-opacity="1" fill-rule="nonzero"/><path fill="#e89105" d="M 99.90625 158.625 L 101.503906 158.625 L 101.503906 153.765625 L 97.445312 149.703125 L 94.570312 149.703125 L 94.570312 151.300781 L 96.78125 151.300781 L 99.90625 154.425781 Z M 99.90625 158.625 " fill-opacity="1" fill-rule="nonzero"/><path fill="#e89105" d="M 108.058594 188.859375 L 109.652344 188.859375 L 109.652344 177.617188 L 99.058594 167.019531 L 97.929688 168.148438 L 108.058594 178.277344 Z M 108.058594 188.859375 " fill-opacity="1" fill-rule="nonzero"/><path fill="#e89105" d="M 92.828125 196.34375 L 95.828125 193.347656 L 95.828125 181.128906 L 82.113281 167.414062 L 80.984375 168.542969 L 94.234375 181.792969 L 94.234375 192.683594 L 91.699219 195.21875 Z M 92.828125 196.34375 " fill-opacity="1" fill-rule="nonzero"/><path fill="#e89105" d="M 99.449219 211.445312 L 104.609375 206.285156 L 104.609375 189.910156 L 95.59375 180.894531 L 94.464844 182.023438 L 103.011719 190.570312 L 103.011719 205.625 L 98.320312 210.316406 Z M 99.449219 211.445312 " fill-opacity="1" fill-rule="nonzero"/><path fill="#e89105" d="M 80.613281 211.644531 L 83.441406 208.816406 L 83.441406 198.28125 L 73.867188 188.707031 L 72.738281 189.835938 L 81.84375 198.945312 L 81.84375 208.15625 L 79.484375 210.515625 Z M 80.613281 211.644531 " fill-opacity="1" fill-rule="nonzero"/><path fill="#e89105" d="M 88.042969 219.324219 L 89.636719 219.324219 L 89.636719 210.503906 L 83.207031 204.074219 L 82.078125 205.203125 L 88.042969 211.167969 Z M 88.042969 219.324219 " fill-opacity="1" fill-rule="nonzero"/><path fill="#e89105" d="M 71.265625 223.699219 L 71.597656 223.699219 L 73.148438 222.140625 L 73.148438 209.234375 L 83.207031 199.175781 L 82.078125 198.050781 L 71.554688 208.574219 L 71.554688 221.480469 L 70.699219 222.335938 L 71.265625 222.902344 Z M 71.265625 223.699219 " fill-opacity="1" fill-rule="nonzero"/><path fill="#e89105" d="M 66.21875 224.660156 C 66.21875 222.847656 67.691406 221.371094 69.503906 221.371094 C 71.316406 221.371094 72.792969 222.847656 72.792969 224.660156 C 72.792969 226.472656 71.316406 227.945312 69.503906 227.945312 C 67.691406 227.945312 66.21875 226.472656 66.21875 224.660156 Z M 67.816406 224.660156 C 67.816406 225.589844 68.574219 226.347656 69.503906 226.347656 C 70.4375 226.347656 71.195312 225.589844 71.195312 224.660156 C 71.195312 223.726562 70.4375 222.96875 69.503906 222.96875 C 68.574219 222.96875 67.816406 223.726562 67.816406 224.660156 Z M 67.816406 224.660156 " fill-opacity="1" fill-rule="nonzero"/><path fill="#e89105" d="M 75.285156 212.738281 C 75.285156 210.925781 76.761719 209.449219 78.574219 209.449219 C 80.386719 209.449219 81.859375 210.925781 81.859375 212.738281 C 81.859375 214.550781 80.386719 216.023438 78.574219 216.023438 C 76.761719 216.023438 75.285156 214.550781 75.285156 212.738281 Z M 76.882812 212.738281 C 76.882812 213.667969 77.640625 214.425781 78.570312 214.425781 C 79.503906 214.425781 80.261719 213.667969 80.261719 212.738281 C 80.261719 211.804688 79.503906 211.046875 78.570312 211.046875 C 77.640625 211.046875 76.882812 211.804688 76.882812 212.738281 Z M 76.882812 212.738281 " fill-opacity="1" fill-rule="nonzero"/><path fill="#e89105" d="M 93.921875 212.476562 C 93.921875 210.664062 95.394531 209.1875 97.207031 209.1875 C 99.019531 209.1875 100.496094 210.664062 100.496094 212.476562 C 100.496094 214.289062 99.019531 215.761719 97.207031 215.761719 C 95.394531 215.761719 93.921875 214.289062 93.921875 212.476562 Z M 95.519531 212.476562 C 95.519531 213.40625 96.277344 214.167969 97.207031 214.167969 C 98.140625 214.167969 98.898438 213.40625 98.898438 212.476562 C 98.898438 211.542969 98.140625 210.785156 97.207031 210.785156 C 96.277344 210.785156 95.519531 211.542969 95.519531 212.476562 Z M 95.519531 212.476562 " fill-opacity="1" fill-rule="nonzero"/><path fill="#e89105" d="M 87.816406 197.042969 C 87.816406 195.230469 89.292969 193.757812 91.105469 193.757812 C 92.917969 193.757812 94.390625 195.230469 94.390625 197.042969 C 94.390625 198.855469 92.917969 200.332031 91.105469 200.332031 C 89.292969 200.332031 87.816406 198.855469 87.816406 197.042969 Z M 89.414062 197.042969 C 89.414062 197.976562 90.171875 198.734375 91.105469 198.734375 C 92.035156 198.734375 92.792969 197.976562 92.792969 197.042969 C 92.792969 196.113281 92.035156 195.355469 91.105469 195.355469 C 90.171875 195.355469 89.414062 196.113281 89.414062 197.042969 Z M 89.414062 197.042969 " fill-opacity="1" fill-rule="nonzero"/><path fill="#e89105" d="M 94.804688 200.738281 C 94.804688 198.925781 96.277344 197.453125 98.09375 197.453125 C 99.90625 197.453125 101.378906 198.925781 101.378906 200.738281 C 101.378906 202.550781 99.90625 204.027344 98.09375 204.027344 C 96.277344 204.027344 94.804688 202.550781 94.804688 200.738281 Z M 96.398438 200.738281 C 96.398438 201.671875 97.160156 202.429688 98.089844 202.429688 C 99.023438 202.429688 99.78125 201.671875 99.78125 200.738281 C 99.78125 199.808594 99.023438 199.050781 98.089844 199.050781 C 97.160156 199.050781 96.398438 199.808594 96.398438 200.738281 Z M 96.398438 200.738281 " fill-opacity="1" fill-rule="nonzero"/><path fill="#e89105" d="M 95.046875 176.0625 C 95.046875 174.25 96.523438 172.777344 98.335938 172.777344 C 100.148438 172.777344 101.621094 174.25 101.621094 176.0625 C 101.621094 177.875 100.148438 179.351562 98.335938 179.351562 C 96.523438 179.351562 95.046875 177.875 95.046875 176.0625 Z M 96.644531 176.0625 C 96.644531 176.996094 97.402344 177.753906 98.335938 177.753906 C 99.265625 177.753906 100.027344 176.996094 100.027344 176.0625 C 100.027344 175.132812 99.265625 174.371094 98.335938 174.371094 C 97.402344 174.371094 96.644531 175.132812 96.644531 176.0625 Z M 96.644531 176.0625 " fill-opacity="1" fill-rule="nonzero"/><path fill="#e89105" d="M 104.328125 167.820312 C 104.328125 166.007812 105.800781 164.535156 107.613281 164.535156 C 109.425781 164.535156 110.902344 166.007812 110.902344 167.820312 C 110.902344 169.632812 109.425781 171.109375 107.613281 171.109375 C 105.800781 171.109375 104.328125 169.632812 104.328125 167.820312 Z M 105.921875 167.820312 C 105.921875 168.753906 106.679688 169.511719 107.613281 169.511719 C 108.546875 169.511719 109.304688 168.753906 109.304688 167.820312 C 109.304688 166.890625 108.546875 166.128906 107.613281 166.128906 C 106.679688 166.128906 105.921875 166.886719 105.921875 167.820312 Z M 105.921875 167.820312 " fill-opacity="1" fill-rule="nonzero"/><path fill="#e89105" d="M 97.316406 161.113281 C 97.316406 159.300781 98.789062 157.828125 100.601562 157.828125 C 102.414062 157.828125 103.890625 159.300781 103.890625 161.113281 C 103.890625 162.929688 102.414062 164.402344 100.601562 164.402344 C 98.789062 164.402344 97.316406 162.929688 97.316406 161.113281 Z M 98.910156 161.113281 C 98.910156 162.046875 99.667969 162.804688 100.601562 162.804688 C 101.535156 162.804688 102.292969 162.046875 102.292969 161.113281 C 102.292969 160.183594 101.535156 159.425781 100.601562 159.425781 C 99.667969 159.425781 98.910156 160.183594 98.910156 161.113281 Z M 98.910156 161.113281 " fill-opacity="1" fill-rule="nonzero"/><path fill="#e89105" d="M 88.804688 150.242188 C 88.804688 148.429688 90.28125 146.953125 92.09375 146.953125 C 93.90625 146.953125 95.378906 148.429688 95.378906 150.242188 C 95.378906 152.054688 93.90625 153.527344 92.09375 153.527344 C 90.28125 153.527344 88.804688 152.054688 88.804688 150.242188 Z M 90.402344 150.242188 C 90.402344 151.171875 91.160156 151.933594 92.089844 151.933594 C 93.023438 151.933594 93.78125 151.171875 93.78125 150.242188 C 93.78125 149.308594 93.023438 148.550781 92.089844 148.550781 C 91.160156 148.550781 90.402344 149.308594 90.402344 150.242188 Z M 90.402344 150.242188 " fill-opacity="1" fill-rule="nonzero"/><path fill="#e89105" d="M 98.550781 140.929688 C 98.550781 139.117188 100.027344 137.644531 101.839844 137.644531 C 103.652344 137.644531 105.125 139.117188 105.125 140.929688 C 105.125 142.742188 103.652344 144.21875 101.839844 144.21875 C 100.027344 144.214844 98.550781 142.742188 98.550781 140.929688 Z M 100.148438 140.929688 C 100.148438 141.863281 100.90625 142.621094 101.835938 142.621094 C 102.769531 142.621094 103.527344 141.863281 103.527344 140.929688 C 103.527344 140 102.769531 139.238281 101.835938 139.238281 C 100.90625 139.238281 100.148438 139.996094 100.148438 140.929688 Z M 100.148438 140.929688 " fill-opacity="1" fill-rule="nonzero"/><g clip-path="url(#6b71d735ec)"><path fill="#e89105" d="M 105.566406 191.0625 C 105.566406 189.25 107.042969 187.777344 108.855469 187.777344 C 110.667969 187.777344 112.140625 189.25 112.140625 191.0625 C 112.140625 192.875 110.667969 194.351562 108.855469 194.351562 C 107.042969 194.351562 105.566406 192.875 105.566406 191.0625 Z M 107.164062 191.0625 C 107.164062 191.996094 107.921875 192.753906 108.855469 192.753906 C 109.785156 192.753906 110.542969 191.996094 110.542969 191.0625 C 110.542969 190.132812 109.785156 189.375 108.855469 189.375 C 107.921875 189.375 107.164062 190.132812 107.164062 191.0625 Z M 107.164062 191.0625 " fill-opacity="1" fill-rule="nonzero"/></g><path fill="#e89105" d="M 85.386719 221.140625 C 85.386719 219.328125 86.863281 217.851562 88.675781 217.851562 C 90.488281 217.851562 91.960938 219.328125 91.960938 221.140625 C 91.960938 222.953125 90.488281 224.425781 88.675781 224.425781 C 86.863281 224.425781 85.386719 222.953125 85.386719 221.140625 Z M 86.984375 221.140625 C 86.984375 222.070312 87.742188 222.832031 88.675781 222.832031 C 89.605469 222.832031 90.367188 222.070312 90.367188 221.140625 C 90.367188 220.207031 89.605469 219.449219 88.675781 219.449219 C 87.742188 219.449219 86.984375 220.207031 86.984375 221.140625 Z M 86.984375 221.140625 " fill-opacity="1" fill-rule="nonzero"/><path fill="#e89105" d="M 75.832031 146.710938 L 75.683594 144.140625 L 71.21875 145.753906 L 74.410156 146.996094 Z M 75.832031 146.710938 " fill-opacity="1" fill-rule="nonzero"/><path fill="#e89105" d="M 97.292969 198.957031 L 98.890625 198.957031 L 98.890625 189.851562 L 95.476562 186.4375 L 94.351562 187.566406 L 97.292969 190.511719 Z M 97.292969 198.957031 " fill-opacity="1" fill-rule="nonzero"/><path fill="#e89105" d="M 63.769531 133.523438 L 65.386719 133.523438 L 65.386719 148.25 L 63.769531 148.25 Z M 63.769531 133.523438 " fill-opacity="1" fill-rule="nonzero"/><path fill="#e89105" d="M 64.941406 142.277344 L 70.402344 136.816406 L 70.402344 124.695312 L 68.785156 124.695312 L 68.785156 136.148438 L 63.800781 141.132812 Z M 64.941406 142.277344 " fill-opacity="1" fill-rule="nonzero"/><path fill="#e89105" d="M 66.269531 122.5625 C 66.269531 120.726562 67.761719 119.234375 69.59375 119.234375 C 71.429688 119.234375 72.921875 120.726562 72.921875 122.5625 C 72.921875 124.398438 71.429688 125.890625 69.59375 125.890625 C 67.761719 125.890625 66.269531 124.394531 66.269531 122.5625 Z M 67.882812 122.5625 C 67.882812 123.507812 68.652344 124.273438 69.59375 124.273438 C 70.539062 124.273438 71.304688 123.507812 71.304688 122.5625 C 71.304688 121.621094 70.539062 120.851562 69.59375 120.851562 C 68.652344 120.851562 67.882812 121.621094 67.882812 122.5625 Z M 67.882812 122.5625 " fill-opacity="1" fill-rule="nonzero"/><path fill="#e89105" d="M 61.253906 131.121094 C 61.253906 129.285156 62.746094 127.792969 64.578125 127.792969 C 66.414062 127.792969 67.90625 129.285156 67.90625 131.121094 C 67.90625 132.953125 66.414062 134.445312 64.578125 134.445312 C 62.746094 134.445312 61.253906 132.953125 61.253906 131.121094 Z M 62.867188 131.121094 C 62.867188 132.0625 63.636719 132.832031 64.578125 132.832031 C 65.523438 132.832031 66.289062 132.0625 66.289062 131.121094 C 66.289062 130.175781 65.523438 129.410156 64.578125 129.410156 C 63.636719 129.410156 62.867188 130.175781 62.867188 131.121094 Z M 62.867188 131.121094 " fill-opacity="1" fill-rule="nonzero"/><path fill="#fcc300" d="M 66.421875 161.703125 C 66.425781 161.703125 66.425781 161.703125 66.425781 161.703125 C 70.839844 164.867188 73.722656 161.742188 79.171875 158.84375 C 84.546875 155.984375 87.058594 159.144531 87.132812 159.238281 L 87.125 159.238281 L 87.121094 159.234375 L 87.109375 159.234375 C 87.074219 159.226562 87 159.214844 86.898438 159.203125 L 86.863281 159.199219 C 86 159.101562 83.242188 158.96875 81.523438 161.0625 C 85.328125 166.082031 80.152344 169.019531 80.035156 169.085938 C 81.746094 167.613281 81.460938 165.21875 80.449219 164.359375 C 79.769531 167.589844 76.820312 167.769531 73.0625 167.460938 C 75.613281 170.25 75.214844 174.078125 73.0625 175.398438 C 73.917969 174.339844 74.359375 170.824219 71.609375 168.933594 C 68.859375 167.042969 69.960938 166.25 69.960938 166.25 C 69.960938 166.25 68.203125 166.382812 66.425781 161.707031 C 66.425781 161.703125 66.425781 161.703125 66.421875 161.703125 C 66.425781 161.703125 66.421875 161.703125 66.421875 161.703125 Z M 64.582031 148.195312 C 64.582031 148.195312 64.582031 149.730469 64.582031 152.09375 L 64.582031 176.324219 C 65.816406 176.324219 66.957031 176.207031 68.605469 175.152344 C 70.257812 174.097656 71.871094 175.117188 73.082031 177.113281 C 75.273438 176.714844 76.085938 174.800781 76.113281 174.734375 C 76.109375 182.082031 67.261719 180.367188 65.722656 187.78125 C 67.707031 192.320312 70.738281 195.386719 76.023438 195.300781 L 75.257812 192.351562 L 77.757812 194.890625 C 78.632812 194.503906 79.429688 194 80.121094 193.339844 C 77.972656 192.554688 75.734375 191.992188 75.734375 191.992188 C 75.773438 191.992188 75.808594 191.996094 75.84375 191.996094 C 77.636719 192.027344 82.160156 192.429688 87.730469 195.34375 C 85.511719 193.582031 83.289062 192.507812 81.3125 191.859375 C 81.542969 191.488281 81.753906 191.082031 81.941406 190.644531 C 81.59375 190.5 81.246094 190.363281 80.90625 190.238281 C 80.707031 190.164062 80.503906 190.09375 80.308594 190.023438 C 79.308594 189.667969 78.371094 189.382812 77.570312 189.164062 C 77.5 189.144531 77.433594 189.125 77.363281 189.105469 C 77.183594 189.058594 77.011719 189.011719 76.851562 188.972656 C 76.785156 188.953125 76.722656 188.9375 76.660156 188.921875 C 75.796875 188.707031 75.210938 188.589844 75.054688 188.5625 C 75.027344 188.558594 75.011719 188.550781 75.011719 188.550781 C 77.082031 188.566406 82.777344 188.980469 89.84375 192.675781 C 87.339844 190.691406 84.839844 189.417969 82.566406 188.601562 C 82.691406 188.015625 82.789062 187.386719 82.851562 186.707031 C 81.046875 186.121094 78.738281 185.5 76.25 185.136719 C 76.28125 185.140625 76.316406 185.140625 76.351562 185.144531 C 78.421875 185.15625 84.117188 185.570312 91.183594 189.261719 C 88.226562 186.917969 85.265625 185.566406 82.691406 184.789062 C 81.488281 182.863281 79.847656 181.785156 77.894531 181.308594 C 81.777344 177.953125 80.625 172.355469 76.40625 169.210938 C 80.316406 170.949219 82.832031 173.738281 83.679688 177.785156 C 83.769531 176.019531 84.109375 174.644531 84.554688 173.492188 L 84.082031 172.746094 L 82.429688 170.144531 L 84.976562 172.519531 C 86.582031 169.15625 88.808594 167.609375 86.488281 162.027344 C 90.132812 163.980469 89.164062 170.292969 91.8125 171.839844 C 91.78125 171.753906 91.753906 171.671875 91.726562 171.589844 C 91.699219 171.511719 91.675781 171.4375 91.652344 171.363281 C 90.820312 168.832031 90.367188 166.429688 91.121094 164.453125 C 91.296875 164.9375 91.5 165.382812 91.738281 165.773438 C 92.425781 166.925781 93.390625 167.648438 94.707031 167.820312 C 93.96875 167.117188 93.605469 165.953125 93.238281 164.601562 L 90.9375 161.15625 L 92.8125 163.042969 C 92.652344 162.476562 92.46875 161.902344 92.238281 161.332031 C 91.601562 159.726562 90.621094 158.160156 88.808594 156.992188 L 88.808594 161.769531 C 88.402344 159.515625 87.285156 157.5625 85.605469 155.847656 C 84.496094 154.71875 83.148438 153.695312 81.597656 152.753906 C 81.542969 151.851562 81.390625 151.042969 81.140625 150.328125 L 78.421875 151.347656 L 75.34375 152.5 L 77.714844 150.367188 L 79.980469 148.328125 C 79.828125 148.15625 79.660156 147.996094 79.484375 147.84375 C 78.914062 147.351562 78.230469 146.96875 77.4375 146.6875 L 76.507812 148.246094 L 76.507812 146.425781 C 75.632812 146.222656 74.648438 146.128906 73.558594 146.136719 L 76.492188 144.097656 C 74.78125 144.023438 73.160156 144.136719 71.640625 144.457031 L 70.59375 146.382812 L 70.59375 144.71875 C 69.285156 145.089844 68.0625 145.625 66.925781 146.34375 L 65.394531 149.335938 L 65.394531 147.457031 C 65.117188 147.691406 64.847656 147.9375 64.582031 148.195312 Z M 64.582031 148.195312 " fill-opacity="1" fill-rule="nonzero"/><path fill="#ffe18d" d="M 74.976562 166.121094 C 77.644531 166.300781 78.929688 165.578125 79.472656 164.628906 C 80.125 163.492188 79.71875 162.027344 79.371094 161.390625 C 78.292969 161.941406 76.425781 163.128906 76.425781 163.128906 C 77.238281 163.285156 78.335938 163.195312 78.335938 163.195312 C 78.335938 163.195312 78.492188 164.234375 76.746094 165.300781 C 76.296875 165.578125 75.71875 165.859375 74.976562 166.121094 Z M 74.976562 166.121094 " fill-opacity="1" fill-rule="nonzero"/><path fill="#ffe18d" d="M 64.582031 193.667969 L 64.582031 209.644531 C 64.582031 209.644531 67.824219 206.695312 69.285156 202.460938 C 69.492188 203.117188 69.195312 205.859375 69.195312 205.859375 C 69.195312 205.859375 70.449219 205.175781 72.386719 202.042969 L 71.773438 204.9375 C 71.773438 204.9375 75.308594 202.34375 74.859375 199.304688 C 74.628906 197.726562 71.875 196.269531 69.277344 195.234375 C 66.863281 194.265625 64.582031 193.667969 64.582031 193.667969 Z M 64.582031 193.667969 " fill-opacity="1" fill-rule="nonzero"/><path fill="#ffffff" d="M 87.109375 159.234375 C 87.074219 159.226562 87.003906 159.214844 86.898438 159.203125 Z M 87.109375 159.234375 " fill-opacity="1" fill-rule="nonzero"/><path fill="#e89105" d="M 66.433594 161.707031 C 70.847656 164.863281 73.726562 161.742188 79.175781 158.839844 C 84.550781 155.980469 87.0625 159.140625 87.132812 159.234375 C 87.113281 159.160156 86.660156 157.425781 85.605469 155.847656 C 84.5 154.722656 83.148438 153.695312 81.597656 152.757812 C 81.542969 151.851562 81.390625 151.042969 81.140625 150.332031 L 78.425781 151.347656 C 78.632812 151.683594 78.832031 152.058594 79.019531 152.480469 C 77.828125 151.910156 76.59375 152.214844 76.59375 152.214844 C 76.59375 152.214844 83.214844 153.804688 84.667969 157.027344 C 80.386719 155.789062 77.433594 157.070312 73.59375 160.335938 C 69.882812 163.492188 66.644531 161.820312 66.433594 161.707031 Z M 66.433594 161.707031 " fill-opacity="1" fill-rule="nonzero"/><path fill="#e89105" d="M 64.582031 148.195312 C 64.582031 148.195312 64.582031 149.730469 64.582031 152.09375 C 65.625 150.964844 69.015625 147.75 73.992188 147.496094 C 72.359375 148.421875 71.917969 149.527344 71.917969 149.527344 C 71.917969 149.527344 74.816406 147.554688 77.347656 149.980469 C 77.472656 150.097656 77.59375 150.226562 77.714844 150.367188 L 79.980469 148.332031 C 79.828125 148.160156 79.660156 147.996094 79.484375 147.847656 C 78.914062 147.351562 78.230469 146.96875 77.4375 146.691406 L 76.507812 148.25 L 76.507812 146.425781 C 75.632812 146.226562 74.648438 146.128906 73.558594 146.136719 L 76.492188 144.101562 C 74.78125 144.023438 73.160156 144.136719 71.640625 144.460938 L 70.59375 146.386719 L 70.59375 144.71875 C 69.285156 145.089844 68.0625 145.628906 66.925781 146.34375 L 65.394531 149.335938 L 65.394531 147.457031 C 65.117188 147.691406 64.847656 147.9375 64.582031 148.195312 Z M 64.582031 148.195312 " fill-opacity="1" fill-rule="nonzero"/><path fill="#e89105" d="M 85.570312 166.894531 C 85.625 168.511719 84.933594 170.152344 84.34375 171.929688 L 84.980469 172.519531 C 86.585938 169.15625 88.8125 167.609375 86.488281 162.027344 C 90.136719 163.984375 89.167969 170.292969 91.8125 171.84375 C 91.78125 171.757812 91.753906 171.671875 91.726562 171.589844 C 91.703125 171.511719 91.679688 171.4375 91.652344 171.363281 C 90.894531 168.984375 90.984375 167.753906 91.738281 165.777344 C 92.421875 167.695312 92.941406 167.589844 94.710938 167.820312 C 93.972656 167.121094 93.609375 165.953125 93.238281 164.605469 L 90.9375 161.160156 L 92.8125 163.042969 C 92.652344 162.480469 92.46875 161.902344 92.238281 161.332031 C 91.601562 159.730469 90.621094 158.160156 88.808594 156.992188 C 89.683594 157.960938 90.082031 159.484375 90.257812 160.84375 C 90.457031 162.417969 90.359375 163.769531 90.359375 163.769531 C 90.359375 163.769531 88.179688 161.09375 84.890625 160.671875 C 85.589844 159.875 87.054688 159.265625 87.128906 159.234375 C 87.128906 159.234375 87.128906 159.234375 87.125 159.234375 C 86.964844 159.261719 83.800781 159.777344 82.859375 161.65625 C 85.207031 164.601562 83.097656 168.769531 83.097656 168.769531 C 83.097656 168.769531 84.582031 168.644531 85.570312 166.894531 Z M 85.570312 166.894531 " fill-opacity="1" fill-rule="nonzero"/><path fill="#e89105" d="M 84.082031 172.75 C 83.621094 174.292969 83.320312 175.945312 83.679688 177.789062 C 83.769531 176.019531 84.109375 174.648438 84.554688 173.496094 Z M 84.082031 172.75 " fill-opacity="1" fill-rule="nonzero"/><path fill="#ffe18d" d="M 65.722656 187.78125 C 67.703125 192.320312 70.738281 195.386719 76.019531 195.300781 L 75.257812 192.351562 L 77.753906 194.890625 C 78.628906 194.503906 79.425781 194 80.117188 193.339844 C 77.972656 192.554688 75.734375 191.992188 75.734375 191.992188 C 75.769531 191.992188 75.804688 191.996094 75.84375 191.996094 C 77.636719 192.027344 82.15625 192.429688 87.730469 195.34375 C 85.507812 193.582031 83.285156 192.507812 81.3125 191.859375 C 81.542969 191.488281 81.753906 191.082031 81.9375 190.644531 C 81.589844 190.5 81.242188 190.363281 80.902344 190.238281 C 80.703125 190.164062 80.503906 190.09375 80.308594 190.023438 C 79.304688 189.667969 78.367188 189.382812 77.570312 189.164062 C 77.5 189.144531 77.429688 189.125 77.363281 189.105469 C 77.183594 189.058594 77.011719 189.011719 76.851562 188.972656 C 76.785156 188.953125 76.71875 188.9375 76.660156 188.921875 C 75.796875 188.707031 75.207031 188.589844 75.050781 188.5625 C 75.039062 188.558594 75.027344 188.558594 75.019531 188.558594 C 75.019531 188.558594 75.015625 188.554688 75.011719 188.554688 L 75.007812 188.554688 C 77.078125 188.566406 82.773438 188.980469 89.84375 192.675781 C 87.339844 190.691406 84.835938 189.417969 82.566406 188.601562 C 82.691406 188.019531 82.789062 187.386719 82.847656 186.707031 C 81.042969 186.121094 78.738281 185.503906 76.246094 185.140625 C 76.28125 185.140625 76.316406 185.144531 76.347656 185.144531 C 78.421875 185.15625 84.113281 185.570312 91.183594 189.265625 C 88.222656 186.921875 85.265625 185.566406 82.691406 184.789062 C 81.488281 182.863281 79.84375 181.789062 77.894531 181.308594 C 81.777344 177.953125 80.621094 172.359375 76.40625 169.214844 C 76.488281 169.316406 80.242188 174.03125 77.074219 178.570312 C 77.152344 176.335938 76.140625 174.78125 76.109375 174.734375 C 76.109375 182.082031 67.261719 180.367188 65.722656 187.78125 Z M 65.722656 187.78125 " fill-opacity="1" fill-rule="nonzero"/><path fill="#ffe18d" d="M 73.0625 175.398438 C 76.359375 173.964844 76.238281 170.292969 75.160156 168.511719 C 81.636719 167.878906 80.449219 164.363281 80.449219 164.363281 C 79.769531 167.59375 76.820312 167.769531 73.0625 167.460938 C 75.613281 170.253906 75.214844 174.078125 73.0625 175.398438 Z M 73.0625 175.398438 " fill-opacity="1" fill-rule="nonzero"/><path fill="#e89105" d="M 66.875 165.179688 C 69.863281 169.015625 67.585938 173.816406 67.542969 173.910156 C 69.03125 173.242188 70.144531 171.148438 69.828125 169.019531 C 73.667969 171.6875 73.0625 175.398438 73.0625 175.398438 C 73.921875 174.339844 74.359375 170.824219 71.613281 168.933594 C 68.863281 167.042969 69.960938 166.25 69.960938 166.25 C 69.960938 166.25 68.203125 166.382812 66.425781 161.707031 C 66.832031 164.351562 68.652344 166.765625 68.652344 166.765625 C 68.652344 166.765625 67.667969 165.6875 66.875 165.179688 Z M 66.875 165.179688 " fill-opacity="1" fill-rule="nonzero"/><path fill="#e89105" d="M 89.847656 192.675781 C 87.34375 190.691406 84.839844 189.417969 82.570312 188.601562 C 82.695312 188.019531 82.792969 187.386719 82.851562 186.707031 C 81.046875 186.121094 78.742188 185.5 76.25 185.136719 C 80.140625 186.304688 81.894531 188.613281 81.894531 188.613281 C 81.894531 188.613281 76.464844 187.828125 75.015625 188.550781 C 77.082031 188.566406 82.777344 188.980469 89.847656 192.675781 Z M 89.847656 192.675781 " fill-opacity="1" fill-rule="nonzero"/><path fill="#e89105" d="M 76.25 185.136719 C 76.285156 185.140625 76.320312 185.140625 76.351562 185.144531 C 78.421875 185.15625 84.117188 185.570312 91.1875 189.265625 C 88.226562 186.921875 85.265625 185.566406 82.695312 184.789062 C 81.492188 182.863281 79.847656 181.789062 77.898438 181.308594 C 77.898438 181.308594 79.78125 182.3125 80.816406 184.71875 C 78.867188 184.46875 76.25 185.136719 76.25 185.136719 Z M 76.25 185.136719 " fill-opacity="1" fill-rule="nonzero"/><path fill="#e89105" d="M 65.722656 187.78125 C 67.703125 192.320312 70.738281 195.386719 76.019531 195.300781 L 75.257812 192.351562 L 77.753906 194.890625 C 78.628906 194.503906 79.425781 194 80.117188 193.339844 C 77.972656 192.554688 75.734375 191.992188 75.734375 191.992188 C 75.769531 191.992188 75.804688 191.996094 75.84375 191.996094 C 77.636719 192.027344 82.15625 192.429688 87.730469 195.34375 C 85.507812 193.582031 83.285156 192.507812 81.3125 191.859375 C 81.542969 191.488281 81.753906 191.082031 81.9375 190.644531 C 81.589844 190.5 81.242188 190.363281 80.902344 190.238281 C 80.703125 190.164062 80.503906 190.09375 80.308594 190.023438 C 79.304688 189.667969 78.367188 189.382812 77.570312 189.164062 C 77.5 189.144531 77.429688 189.125 77.363281 189.105469 C 77.183594 189.058594 77.011719 189.011719 76.851562 188.972656 C 76.785156 188.953125 76.71875 188.9375 76.660156 188.921875 C 75.796875 188.707031 75.207031 188.589844 75.050781 188.5625 C 75.039062 188.558594 75.027344 188.558594 75.019531 188.558594 C 76.722656 189.082031 80.234375 191.351562 80.234375 191.351562 C 80.234375 191.351562 74.472656 191.433594 70.066406 188.121094 C 70.785156 190.863281 72.234375 192.234375 72.308594 192.304688 C 72.105469 192.195312 62.988281 187.203125 70.367188 183.183594 C 77.753906 179.160156 76.140625 174.820312 76.109375 174.734375 C 76.109375 182.082031 67.261719 180.367188 65.722656 187.78125 Z M 65.722656 187.78125 " fill-opacity="1" fill-rule="nonzero"/><path fill="#e89105" d="M 64.582031 206.078125 L 64.582031 209.644531 C 64.582031 209.644531 67.824219 206.691406 69.285156 202.457031 C 69.492188 203.113281 69.195312 205.859375 69.195312 205.859375 C 69.195312 205.859375 70.449219 205.171875 72.386719 202.042969 L 71.773438 204.933594 C 71.773438 204.933594 75.308594 202.34375 74.859375 199.300781 C 74.628906 197.726562 71.875 196.269531 69.277344 195.234375 C 70.859375 196.597656 72.386719 198.597656 71.601562 200.847656 C 71.601562 200.847656 70.730469 199.101562 68.929688 197.40625 C 68.230469 200.730469 66.40625 203.742188 64.582031 206.078125 Z M 64.582031 206.078125 " fill-opacity="1" fill-rule="nonzero"/><path fill="#e89105" d="M 87.804688 133.144531 L 92.136719 128.808594 L 93.265625 129.9375 L 88.933594 134.269531 Z M 87.804688 133.144531 " fill-opacity="1" fill-rule="nonzero"/><path fill="#e89105" d="M 90.621094 127.746094 C 90.621094 125.933594 92.09375 124.460938 93.90625 124.460938 C 95.71875 124.460938 97.195312 125.933594 97.195312 127.746094 C 97.195312 129.558594 95.71875 131.035156 93.90625 131.035156 C 92.09375 131.035156 90.621094 129.558594 90.621094 127.746094 Z M 92.214844 127.746094 C 92.214844 128.679688 92.972656 129.4375 93.90625 129.4375 C 94.839844 129.4375 95.597656 128.679688 95.597656 127.746094 C 95.597656 126.816406 94.839844 126.058594 93.90625 126.058594 C 92.972656 126.058594 92.214844 126.816406 92.214844 127.746094 Z M 92.214844 127.746094 " fill-opacity="1" fill-rule="nonzero"/><g fill="#fcc300" fill-opacity="1"><g transform="translate(120.200787, 175.507319)"><g><path d="M 11.09375 0.34375 C 7.125 0.34375 4.332031 -0.476562 2.71875 -2.125 C 1.363281 -3.5 0.6875 -5.5 0.6875 -8.125 L 7.5 -8.125 C 7.5 -6.988281 7.691406 -6.09375 8.078125 -5.4375 C 8.628906 -4.488281 9.632812 -4.015625 11.09375 -4.015625 C 12.570312 -4.015625 13.582031 -4.488281 14.125 -5.4375 C 14.507812 -6.113281 14.703125 -7.007812 14.703125 -8.125 L 14.703125 -16.25 L 21.53125 -16.25 L 21.53125 -8.03125 C 21.53125 -5.46875 20.851562 -3.5 19.5 -2.125 C 17.875 -0.476562 15.070312 0.34375 11.09375 0.34375 Z M 11.09375 0.34375 "/></g></g><g transform="translate(142.755725, 175.507319)"><g><path d="M 11.4375 0.34375 C 7.46875 0.34375 4.675781 -0.476562 3.0625 -2.125 C 1.695312 -3.5 1.015625 -5.5 1.015625 -8.125 L 1.015625 -16.25 L 7.84375 -16.25 L 7.84375 -8.125 C 7.84375 -6.988281 8.035156 -6.09375 8.421875 -5.4375 C 8.972656 -4.488281 9.976562 -4.015625 11.4375 -4.015625 C 12.914062 -4.015625 13.925781 -4.488281 14.46875 -5.4375 C 14.851562 -6.113281 15.046875 -7.007812 15.046875 -8.125 L 15.046875 -16.25 L 21.875 -16.25 L 21.875 -8.03125 C 21.875 -5.46875 21.195312 -3.5 19.84375 -2.125 C 18.21875 -0.476562 15.414062 0.34375 11.4375 0.34375 Z M 11.4375 0.34375 "/></g></g><g transform="translate(165.650858, 175.507319)"><g><path d="M 27.328125 0 L 20.40625 0 L 18.875 -2.671875 L 8.609375 -2.671875 L 7.078125 0 L 0.171875 0 L 10.578125 -16.25 L 16.921875 -16.25 Z M 16.578125 -6.6875 L 13.75 -11.625 L 10.921875 -6.6875 Z M 16.578125 -6.6875 "/></g></g><g transform="translate(193.149965, 175.507319)"><g><path d="M 25.953125 0 L 17.828125 0 L 8.640625 -11.015625 L 8.640625 0 L 1.8125 0 L 1.8125 -16.265625 L 9.9375 -16.265625 L 19.125 -5.3125 L 19.125 -16.265625 L 25.953125 -16.265625 Z M 25.953125 0 "/></g></g><g transform="translate(220.921229, 175.507319)"><g/></g><g transform="translate(226.681866, 175.507319)"><g><path d="M 8.640625 0 L 1.8125 0 L 1.8125 -16.265625 L 12.90625 -16.265625 C 15.5625 -16.265625 17.703125 -16.066406 19.328125 -15.671875 C 20.960938 -15.273438 22.15625 -14.648438 22.90625 -13.796875 C 23.65625 -12.953125 24.03125 -11.84375 24.03125 -10.46875 C 24.03125 -9.113281 23.65625 -8.007812 22.90625 -7.15625 C 22.15625 -6.3125 20.960938 -5.6875 19.328125 -5.28125 C 17.703125 -4.882812 15.5625 -4.6875 12.90625 -4.6875 L 8.640625 -4.6875 Z M 8.640625 -8.703125 L 12.53125 -8.71875 C 13.625 -8.71875 14.484375 -8.757812 15.109375 -8.84375 C 15.734375 -8.9375 16.195312 -9.0625 16.5 -9.21875 C 16.800781 -9.375 16.992188 -9.554688 17.078125 -9.765625 C 17.160156 -9.984375 17.203125 -10.21875 17.203125 -10.46875 C 17.203125 -10.726562 17.160156 -10.960938 17.078125 -11.171875 C 16.992188 -11.390625 16.800781 -11.578125 16.5 -11.734375 C 16.195312 -11.898438 15.734375 -12.023438 15.109375 -12.109375 C 14.484375 -12.203125 13.625 -12.25 12.53125 -12.25 L 8.640625 -12.25 Z M 8.640625 -8.703125 "/></g></g><g transform="translate(251.61817, 175.507319)"><g><path d="M 27.328125 0 L 20.40625 0 L 18.875 -2.671875 L 8.609375 -2.671875 L 7.078125 0 L 0.171875 0 L 10.578125 -16.25 L 16.921875 -16.25 Z M 16.578125 -6.6875 L 13.75 -11.625 L 10.921875 -6.6875 Z M 16.578125 -6.6875 "/></g></g><g transform="translate(279.117277, 175.507319)"><g><path d="M 13.484375 0 L 1.8125 0 L 1.8125 -16.25 L 13.734375 -16.25 C 15.847656 -16.25 17.585938 -16.148438 18.953125 -15.953125 C 20.328125 -15.765625 21.382812 -15.460938 22.125 -15.046875 C 22.863281 -14.640625 23.363281 -14.117188 23.625 -13.484375 C 23.894531 -12.847656 24.03125 -12.09375 24.03125 -11.21875 C 24 -10.519531 23.800781 -9.941406 23.4375 -9.484375 C 23.082031 -9.023438 22.664062 -8.679688 22.1875 -8.453125 C 21.707031 -8.234375 21.285156 -8.125 20.921875 -8.125 C 21.285156 -8.125 21.703125 -8.050781 22.171875 -7.90625 C 22.648438 -7.769531 23.113281 -7.570312 23.5625 -7.3125 C 24.007812 -7.050781 24.382812 -6.726562 24.6875 -6.34375 C 24.988281 -5.96875 25.140625 -5.539062 25.140625 -5.0625 C 25.140625 -4.425781 25.0625 -3.84375 24.90625 -3.3125 C 24.757812 -2.78125 24.460938 -2.3125 24.015625 -1.90625 C 23.578125 -1.5 22.925781 -1.148438 22.0625 -0.859375 C 21.207031 -0.578125 20.082031 -0.363281 18.6875 -0.21875 C 17.289062 -0.0703125 15.554688 0 13.484375 0 Z M 13.09375 -9.515625 C 14.09375 -9.515625 14.863281 -9.5625 15.40625 -9.65625 C 15.957031 -9.757812 16.335938 -9.910156 16.546875 -10.109375 C 16.765625 -10.316406 16.875 -10.578125 16.875 -10.890625 C 16.875 -11.203125 16.765625 -11.457031 16.546875 -11.65625 C 16.335938 -11.851562 15.957031 -12 15.40625 -12.09375 C 14.863281 -12.195312 14.09375 -12.25 13.09375 -12.25 L 8.640625 -12.25 L 8.640625 -9.515625 Z M 13.09375 -4.015625 C 14.113281 -4.015625 14.941406 -4.039062 15.578125 -4.09375 C 16.210938 -4.144531 16.675781 -4.265625 16.96875 -4.453125 C 17.269531 -4.640625 17.421875 -4.945312 17.421875 -5.375 C 17.421875 -5.800781 17.269531 -6.109375 16.96875 -6.296875 C 16.675781 -6.492188 16.210938 -6.613281 15.578125 -6.65625 C 14.941406 -6.707031 14.113281 -6.734375 13.09375 -6.734375 L 8.640625 -6.734375 L 8.640625 -4.015625 Z M 13.09375 -4.015625 "/></g></g><g transform="translate(305.164885, 175.507319)"><g><path d="M 20.796875 0 L 1.8125 0 L 1.8125 -16.265625 L 8.640625 -16.265625 L 8.640625 -4.03125 L 20.796875 -4.03125 Z M 20.796875 0 "/></g></g><g transform="translate(326.427081, 175.507319)"><g><path d="M 12.296875 0.34375 C 8.273438 0.34375 5.316406 -0.476562 3.421875 -2.125 C 1.742188 -3.59375 0.90625 -5.59375 0.90625 -8.125 C 0.90625 -10.65625 1.742188 -12.648438 3.421875 -14.109375 C 5.316406 -15.765625 8.273438 -16.59375 12.296875 -16.59375 C 16.316406 -16.59375 19.273438 -15.765625 21.171875 -14.109375 C 22.847656 -12.648438 23.6875 -10.65625 23.6875 -8.125 C 23.6875 -5.59375 22.847656 -3.59375 21.171875 -2.125 C 19.273438 -0.476562 16.316406 0.34375 12.296875 0.34375 Z M 12.296875 -4.015625 C 13.941406 -4.015625 15.148438 -4.488281 15.921875 -5.4375 C 16.546875 -6.195312 16.859375 -7.09375 16.859375 -8.125 C 16.859375 -9.164062 16.546875 -10.0625 15.921875 -10.8125 C 15.148438 -11.769531 13.941406 -12.25 12.296875 -12.25 C 10.648438 -12.25 9.4375 -11.769531 8.65625 -10.8125 C 8.039062 -10.0625 7.734375 -9.164062 7.734375 -8.125 C 7.734375 -7.09375 8.039062 -6.195312 8.65625 -5.4375 C 9.4375 -4.488281 10.648438 -4.015625 12.296875 -4.015625 Z M 12.296875 -4.015625 "/></g></g></g><g fill="#ffe18d" fill-opacity="1"><g transform="translate(137.530403, 190.797653)"><g><path d="M 5.0625 -1.953125 C 5.0625 -1.535156 4.957031 -1.171875 4.75 -0.859375 C 4.550781 -0.554688 4.253906 -0.320312 3.859375 -0.15625 C 3.472656 0.0078125 3.003906 0.09375 2.453125 0.09375 C 2.210938 0.09375 1.972656 0.078125 1.734375 0.046875 C 1.503906 0.015625 1.28125 -0.03125 1.0625 -0.09375 C 0.851562 -0.15625 0.648438 -0.234375 0.453125 -0.328125 L 0.453125 -1.71875 C 0.785156 -1.570312 1.128906 -1.4375 1.484375 -1.3125 C 1.847656 -1.195312 2.207031 -1.140625 2.5625 -1.140625 C 2.8125 -1.140625 3.007812 -1.171875 3.15625 -1.234375 C 3.3125 -1.296875 3.421875 -1.382812 3.484375 -1.5 C 3.554688 -1.613281 3.59375 -1.742188 3.59375 -1.890625 C 3.59375 -2.066406 3.53125 -2.21875 3.40625 -2.34375 C 3.289062 -2.46875 3.128906 -2.582031 2.921875 -2.6875 C 2.710938 -2.800781 2.476562 -2.921875 2.21875 -3.046875 C 2.050781 -3.117188 1.867188 -3.210938 1.671875 -3.328125 C 1.484375 -3.441406 1.300781 -3.578125 1.125 -3.734375 C 0.957031 -3.898438 0.816406 -4.097656 0.703125 -4.328125 C 0.585938 -4.554688 0.53125 -4.832031 0.53125 -5.15625 C 0.53125 -5.570312 0.625 -5.929688 0.8125 -6.234375 C 1.007812 -6.535156 1.285156 -6.765625 1.640625 -6.921875 C 2.003906 -7.078125 2.429688 -7.15625 2.921875 -7.15625 C 3.296875 -7.15625 3.648438 -7.113281 3.984375 -7.03125 C 4.316406 -6.945312 4.660156 -6.828125 5.015625 -6.671875 L 4.546875 -5.5 C 4.210938 -5.632812 3.914062 -5.738281 3.65625 -5.8125 C 3.40625 -5.882812 3.144531 -5.921875 2.875 -5.921875 C 2.6875 -5.921875 2.523438 -5.890625 2.390625 -5.828125 C 2.265625 -5.765625 2.164062 -5.675781 2.09375 -5.5625 C 2.03125 -5.457031 2 -5.335938 2 -5.203125 C 2 -5.035156 2.046875 -4.894531 2.140625 -4.78125 C 2.242188 -4.664062 2.394531 -4.550781 2.59375 -4.4375 C 2.789062 -4.332031 3.035156 -4.210938 3.328125 -4.078125 C 3.691406 -3.898438 4 -3.71875 4.25 -3.53125 C 4.507812 -3.351562 4.707031 -3.140625 4.84375 -2.890625 C 4.988281 -2.640625 5.0625 -2.328125 5.0625 -1.953125 Z M 5.0625 -1.953125 "/></g></g></g><g fill="#ffe18d" fill-opacity="1"><g transform="translate(147.925819, 190.797653)"><g><path d="M 7.296875 -3.546875 C 7.296875 -2.992188 7.226562 -2.492188 7.09375 -2.046875 C 6.957031 -1.609375 6.75 -1.226562 6.46875 -0.90625 C 6.195312 -0.582031 5.847656 -0.332031 5.421875 -0.15625 C 5.003906 0.0078125 4.507812 0.09375 3.9375 0.09375 C 3.363281 0.09375 2.863281 0.0078125 2.4375 -0.15625 C 2.019531 -0.332031 1.671875 -0.582031 1.390625 -0.90625 C 1.117188 -1.226562 0.914062 -1.613281 0.78125 -2.0625 C 0.644531 -2.507812 0.578125 -3.003906 0.578125 -3.546875 C 0.578125 -4.273438 0.695312 -4.910156 0.9375 -5.453125 C 1.175781 -5.992188 1.546875 -6.414062 2.046875 -6.71875 C 2.546875 -7.019531 3.179688 -7.171875 3.953125 -7.171875 C 4.710938 -7.171875 5.335938 -7.019531 5.828125 -6.71875 C 6.328125 -6.414062 6.695312 -5.992188 6.9375 -5.453125 C 7.175781 -4.910156 7.296875 -4.273438 7.296875 -3.546875 Z M 2.140625 -3.546875 C 2.140625 -3.046875 2.203125 -2.617188 2.328125 -2.265625 C 2.453125 -1.910156 2.644531 -1.632812 2.90625 -1.4375 C 3.175781 -1.25 3.519531 -1.15625 3.9375 -1.15625 C 4.363281 -1.15625 4.707031 -1.25 4.96875 -1.4375 C 5.226562 -1.632812 5.421875 -1.910156 5.546875 -2.265625 C 5.671875 -2.617188 5.734375 -3.046875 5.734375 -3.546875 C 5.734375 -4.285156 5.59375 -4.863281 5.3125 -5.28125 C 5.03125 -5.707031 4.578125 -5.921875 3.953125 -5.921875 C 3.523438 -5.921875 3.175781 -5.820312 2.90625 -5.625 C 2.644531 -5.4375 2.453125 -5.164062 2.328125 -4.8125 C 2.203125 -4.457031 2.140625 -4.035156 2.140625 -3.546875 Z M 2.140625 -3.546875 "/></g></g></g><g fill="#ffe18d" fill-opacity="1"><g transform="translate(160.746188, 190.797653)"><g><path d="M 2.359375 0 L 0.890625 0 L 0.890625 -7.0625 L 4.9375 -7.0625 L 4.9375 -5.828125 L 2.359375 -5.828125 L 2.359375 -4.015625 L 4.75 -4.015625 L 4.75 -2.796875 L 2.359375 -2.796875 Z M 2.359375 0 "/></g></g></g><g fill="#ffe18d" fill-opacity="1"><g transform="translate(171.122282, 190.797653)"><g><path d="M 3.609375 0 L 2.109375 0 L 2.109375 -5.8125 L 0.203125 -5.8125 L 0.203125 -7.0625 L 5.53125 -7.0625 L 5.53125 -5.8125 L 3.609375 -5.8125 Z M 3.609375 0 "/></g></g></g><g fill="#ffe18d" fill-opacity="1"><g transform="translate(181.797872, 190.797653)"><g><path d="M 9.5625 -7.0625 L 7.765625 0 L 6.0625 0 L 5.109375 -3.703125 C 5.085938 -3.773438 5.0625 -3.882812 5.03125 -4.03125 C 5 -4.175781 4.960938 -4.332031 4.921875 -4.5 C 4.890625 -4.675781 4.859375 -4.835938 4.828125 -4.984375 C 4.804688 -5.140625 4.789062 -5.265625 4.78125 -5.359375 C 4.769531 -5.265625 4.75 -5.140625 4.71875 -4.984375 C 4.695312 -4.835938 4.664062 -4.679688 4.625 -4.515625 C 4.59375 -4.347656 4.5625 -4.1875 4.53125 -4.03125 C 4.5 -3.882812 4.472656 -3.773438 4.453125 -3.703125 L 3.5 0 L 1.796875 0 L 0 -7.0625 L 1.46875 -7.0625 L 2.375 -3.203125 C 2.40625 -3.085938 2.4375 -2.945312 2.46875 -2.78125 C 2.5 -2.625 2.53125 -2.457031 2.5625 -2.28125 C 2.601562 -2.113281 2.632812 -1.945312 2.65625 -1.78125 C 2.6875 -1.613281 2.707031 -1.472656 2.71875 -1.359375 C 2.738281 -1.484375 2.757812 -1.625 2.78125 -1.78125 C 2.8125 -1.945312 2.835938 -2.113281 2.859375 -2.28125 C 2.890625 -2.445312 2.921875 -2.601562 2.953125 -2.75 C 2.992188 -2.894531 3.023438 -3.015625 3.046875 -3.109375 L 4.078125 -7.0625 L 5.484375 -7.0625 L 6.515625 -3.109375 C 6.535156 -3.015625 6.5625 -2.894531 6.59375 -2.75 C 6.625 -2.601562 6.65625 -2.445312 6.6875 -2.28125 C 6.71875 -2.113281 6.75 -1.945312 6.78125 -1.78125 C 6.8125 -1.613281 6.832031 -1.472656 6.84375 -1.359375 C 6.863281 -1.515625 6.894531 -1.707031 6.9375 -1.9375 C 6.976562 -2.175781 7.019531 -2.40625 7.0625 -2.625 C 7.113281 -2.851562 7.15625 -3.046875 7.1875 -3.203125 L 8.09375 -7.0625 Z M 9.5625 -7.0625 "/></g></g></g><g fill="#ffe18d" fill-opacity="1"><g transform="translate(196.308946, 190.797653)"><g><path d="M 5.203125 0 L 4.703125 -1.6875 L 2.125 -1.6875 L 1.609375 0 L 0 0 L 2.484375 -7.09375 L 4.328125 -7.09375 L 6.828125 0 Z M 4.34375 -2.9375 L 3.828125 -4.578125 C 3.796875 -4.691406 3.753906 -4.832031 3.703125 -5 C 3.648438 -5.175781 3.597656 -5.351562 3.546875 -5.53125 C 3.492188 -5.707031 3.453125 -5.863281 3.421875 -6 C 3.378906 -5.863281 3.332031 -5.695312 3.28125 -5.5 C 3.226562 -5.300781 3.175781 -5.113281 3.125 -4.9375 C 3.070312 -4.769531 3.035156 -4.648438 3.015625 -4.578125 L 2.5 -2.9375 Z M 4.34375 -2.9375 "/></g></g></g><g fill="#ffe18d" fill-opacity="1"><g transform="translate(208.081079, 190.797653)"><g><path d="M 2.953125 -7.0625 C 3.585938 -7.0625 4.113281 -6.984375 4.53125 -6.828125 C 4.945312 -6.671875 5.253906 -6.4375 5.453125 -6.125 C 5.660156 -5.8125 5.765625 -5.421875 5.765625 -4.953125 C 5.765625 -4.628906 5.703125 -4.34375 5.578125 -4.09375 C 5.460938 -3.851562 5.300781 -3.648438 5.09375 -3.484375 C 4.894531 -3.316406 4.679688 -3.179688 4.453125 -3.078125 L 6.53125 0 L 4.875 0 L 3.1875 -2.703125 L 2.390625 -2.703125 L 2.390625 0 L 0.890625 0 L 0.890625 -7.0625 Z M 2.84375 -5.828125 L 2.390625 -5.828125 L 2.390625 -3.921875 L 2.875 -3.921875 C 3.363281 -3.921875 3.710938 -4.003906 3.921875 -4.171875 C 4.140625 -4.335938 4.25 -4.582031 4.25 -4.90625 C 4.25 -5.238281 4.132812 -5.472656 3.90625 -5.609375 C 3.675781 -5.753906 3.320312 -5.828125 2.84375 -5.828125 Z M 2.84375 -5.828125 "/></g></g></g><g fill="#ffe18d" fill-opacity="1"><g transform="translate(219.558546, 190.797653)"><g><path d="M 4.953125 0 L 0.890625 0 L 0.890625 -7.0625 L 4.953125 -7.0625 L 4.953125 -5.828125 L 2.390625 -5.828125 L 2.390625 -4.28125 L 4.78125 -4.28125 L 4.78125 -3.0625 L 2.390625 -3.0625 L 2.390625 -1.234375 L 4.953125 -1.234375 Z M 4.953125 0 "/></g></g></g><g fill="#ffe18d" fill-opacity="1"><g transform="translate(230.045743, 190.797653)"><g/></g></g><g fill="#ffe18d" fill-opacity="1"><g transform="translate(237.562132, 190.797653)"><g><path d="M 6.75 -3.59375 C 6.75 -2.800781 6.59375 -2.140625 6.28125 -1.609375 C 5.976562 -1.078125 5.539062 -0.675781 4.96875 -0.40625 C 4.394531 -0.132812 3.703125 0 2.890625 0 L 0.890625 0 L 0.890625 -7.0625 L 3.109375 -7.0625 C 3.847656 -7.0625 4.488281 -6.925781 5.03125 -6.65625 C 5.570312 -6.394531 5.992188 -6.007812 6.296875 -5.5 C 6.597656 -4.988281 6.75 -4.351562 6.75 -3.59375 Z M 5.1875 -3.5625 C 5.1875 -4.082031 5.109375 -4.507812 4.953125 -4.84375 C 4.804688 -5.175781 4.582031 -5.421875 4.28125 -5.578125 C 3.988281 -5.742188 3.625 -5.828125 3.1875 -5.828125 L 2.390625 -5.828125 L 2.390625 -1.234375 L 3.03125 -1.234375 C 3.757812 -1.234375 4.300781 -1.425781 4.65625 -1.8125 C 5.007812 -2.207031 5.1875 -2.789062 5.1875 -3.5625 Z M 5.1875 -3.5625 "/></g></g></g><g fill="#ffe18d" fill-opacity="1"><g transform="translate(249.831814, 190.797653)"><g><path d="M 4.953125 0 L 0.890625 0 L 0.890625 -7.0625 L 4.953125 -7.0625 L 4.953125 -5.828125 L 2.390625 -5.828125 L 2.390625 -4.28125 L 4.78125 -4.28125 L 4.78125 -3.0625 L 2.390625 -3.0625 L 2.390625 -1.234375 L 4.953125 -1.234375 Z M 4.953125 0 "/></g></g></g><g fill="#ffe18d" fill-opacity="1"><g transform="translate(260.319012, 190.797653)"><g><path d="M 6.421875 -7.0625 L 4.03125 0 L 2.390625 0 L 0 -7.0625 L 1.515625 -7.0625 L 2.84375 -2.859375 C 2.863281 -2.785156 2.898438 -2.648438 2.953125 -2.453125 C 3.003906 -2.265625 3.054688 -2.0625 3.109375 -1.84375 C 3.160156 -1.625 3.195312 -1.441406 3.21875 -1.296875 C 3.238281 -1.441406 3.269531 -1.617188 3.3125 -1.828125 C 3.363281 -2.046875 3.414062 -2.253906 3.46875 -2.453125 C 3.519531 -2.648438 3.554688 -2.785156 3.578125 -2.859375 L 4.921875 -7.0625 Z M 6.421875 -7.0625 "/></g></g></g><g fill="#ffe18d" fill-opacity="1"><g transform="translate(271.695036, 190.797653)"><g><path d="M 4.953125 0 L 0.890625 0 L 0.890625 -7.0625 L 4.953125 -7.0625 L 4.953125 -5.828125 L 2.390625 -5.828125 L 2.390625 -4.28125 L 4.78125 -4.28125 L 4.78125 -3.0625 L 2.390625 -3.0625 L 2.390625 -1.234375 L 4.953125 -1.234375 Z M 4.953125 0 "/></g></g></g><g fill="#ffe18d" fill-opacity="1"><g transform="translate(282.182234, 190.797653)"><g><path d="M 0.890625 0 L 0.890625 -7.0625 L 2.390625 -7.0625 L 2.390625 -1.234375 L 5.25 -1.234375 L 5.25 0 Z M 0.890625 0 "/></g></g></g><g fill="#ffe18d" fill-opacity="1"><g transform="translate(292.717737, 190.797653)"><g><path d="M 7.296875 -3.546875 C 7.296875 -2.992188 7.226562 -2.492188 7.09375 -2.046875 C 6.957031 -1.609375 6.75 -1.226562 6.46875 -0.90625 C 6.195312 -0.582031 5.847656 -0.332031 5.421875 -0.15625 C 5.003906 0.0078125 4.507812 0.09375 3.9375 0.09375 C 3.363281 0.09375 2.863281 0.0078125 2.4375 -0.15625 C 2.019531 -0.332031 1.671875 -0.582031 1.390625 -0.90625 C 1.117188 -1.226562 0.914062 -1.613281 0.78125 -2.0625 C 0.644531 -2.507812 0.578125 -3.003906 0.578125 -3.546875 C 0.578125 -4.273438 0.695312 -4.910156 0.9375 -5.453125 C 1.175781 -5.992188 1.546875 -6.414062 2.046875 -6.71875 C 2.546875 -7.019531 3.179688 -7.171875 3.953125 -7.171875 C 4.710938 -7.171875 5.335938 -7.019531 5.828125 -6.71875 C 6.328125 -6.414062 6.695312 -5.992188 6.9375 -5.453125 C 7.175781 -4.910156 7.296875 -4.273438 7.296875 -3.546875 Z M 2.140625 -3.546875 C 2.140625 -3.046875 2.203125 -2.617188 2.328125 -2.265625 C 2.453125 -1.910156 2.644531 -1.632812 2.90625 -1.4375 C 3.175781 -1.25 3.519531 -1.15625 3.9375 -1.15625 C 4.363281 -1.15625 4.707031 -1.25 4.96875 -1.4375 C 5.226562 -1.632812 5.421875 -1.910156 5.546875 -2.265625 C 5.671875 -2.617188 5.734375 -3.046875 5.734375 -3.546875 C 5.734375 -4.285156 5.59375 -4.863281 5.3125 -5.28125 C 5.03125 -5.707031 4.578125 -5.921875 3.953125 -5.921875 C 3.523438 -5.921875 3.175781 -5.820312 2.90625 -5.625 C 2.644531 -5.4375 2.453125 -5.164062 2.328125 -4.8125 C 2.203125 -4.457031 2.140625 -4.035156 2.140625 -3.546875 Z M 2.140625 -3.546875 "/></g></g></g><g fill="#ffe18d" fill-opacity="1"><g transform="translate(305.538106, 190.797653)"><g><path d="M 3.140625 -7.0625 C 4.054688 -7.0625 4.722656 -6.863281 5.140625 -6.46875 C 5.554688 -6.082031 5.765625 -5.546875 5.765625 -4.859375 C 5.765625 -4.546875 5.71875 -4.25 5.625 -3.96875 C 5.53125 -3.6875 5.378906 -3.4375 5.171875 -3.21875 C 4.960938 -3 4.679688 -2.828125 4.328125 -2.703125 C 3.972656 -2.578125 3.539062 -2.515625 3.03125 -2.515625 L 2.390625 -2.515625 L 2.390625 0 L 0.890625 0 L 0.890625 -7.0625 Z M 3.0625 -5.828125 L 2.390625 -5.828125 L 2.390625 -3.734375 L 2.875 -3.734375 C 3.15625 -3.734375 3.398438 -3.769531 3.609375 -3.84375 C 3.816406 -3.914062 3.972656 -4.03125 4.078125 -4.1875 C 4.191406 -4.351562 4.25 -4.5625 4.25 -4.8125 C 4.25 -5.15625 4.148438 -5.410156 3.953125 -5.578125 C 3.765625 -5.742188 3.46875 -5.828125 3.0625 -5.828125 Z M 3.0625 -5.828125 "/></g></g></g><g fill="#ffe18d" fill-opacity="1"><g transform="translate(316.696754, 190.797653)"><g><path d="M 4.953125 0 L 0.890625 0 L 0.890625 -7.0625 L 4.953125 -7.0625 L 4.953125 -5.828125 L 2.390625 -5.828125 L 2.390625 -4.28125 L 4.78125 -4.28125 L 4.78125 -3.0625 L 2.390625 -3.0625 L 2.390625 -1.234375 L 4.953125 -1.234375 Z M 4.953125 0 "/></g></g></g><g fill="#ffe18d" fill-opacity="1"><g transform="translate(327.183952, 190.797653)"><g><path d="M 2.953125 -7.0625 C 3.585938 -7.0625 4.113281 -6.984375 4.53125 -6.828125 C 4.945312 -6.671875 5.253906 -6.4375 5.453125 -6.125 C 5.660156 -5.8125 5.765625 -5.421875 5.765625 -4.953125 C 5.765625 -4.628906 5.703125 -4.34375 5.578125 -4.09375 C 5.460938 -3.851562 5.300781 -3.648438 5.09375 -3.484375 C 4.894531 -3.316406 4.679688 -3.179688 4.453125 -3.078125 L 6.53125 0 L 4.875 0 L 3.1875 -2.703125 L 2.390625 -2.703125 L 2.390625 0 L 0.890625 0 L 0.890625 -7.0625 Z M 2.84375 -5.828125 L 2.390625 -5.828125 L 2.390625 -3.921875 L 2.875 -3.921875 C 3.363281 -3.921875 3.710938 -4.003906 3.921875 -4.171875 C 4.140625 -4.335938 4.25 -4.582031 4.25 -4.90625 C 4.25 -5.238281 4.132812 -5.472656 3.90625 -5.609375 C 3.675781 -5.753906 3.320312 -5.828125 2.84375 -5.828125 Z M 2.84375 -5.828125 "/></g></g></g></svg>